<?xml version="1.0" encoding="utf-8"?>
<!-- Generator: Adobe Illustrator 27.5.0, SVG Export Plug-In . SVG Version: 6.00 Build 0)  -->
<svg version="1.1" id="Layer_1" xmlns="http://www.w3.org/2000/svg" xmlns:xlink="http://www.w3.org/1999/xlink" x="0px" y="0px"
	 viewBox="0 0 221.776 385.172" style="enable-background:new 0 0 221.776 385.172;" xml:space="preserve">
<g>
	<g>
		<path style="fill:#FFFFFF;" d="M25.647,249.73L25.647,249.73c-4.882,21.82-7.187,56.368,0.984,87.891
			c1.604,6.186,3.983,11.777,7.055,16.589c0.071,0.115,0.144,0.228,0.24,0.372c0.06,0.09,0.114,0.169,0.115,0.169
			c0,0,0-0.001-0.001-0.003c0.393,0.6,0.792,1.183,1.184,1.727c0.15,0.21,0.302,0.413,0.452,0.611l0.086,0.115
			c0.318,0.427,0.64,0.845,0.967,1.253c0.197,0.246,0.395,0.487,0.599,0.731c0.328,0.393,0.658,0.773,0.987,1.143l0.1,0.112
			c0.163,0.185,0.327,0.367,0.478,0.53c0.412,0.445,0.827,0.874,1.22,1.265c0.121,0.126,0.243,0.25,0.377,0.382
			c0.528,0.516,1.06,1.007,1.602,1.487c0.172,0.152,0.344,0.298,0.521,0.448l0.057,0.048c0.358,0.306,0.716,0.607,1.08,0.899
			c0.227,0.182,0.455,0.359,0.663,0.52c0.342,0.265,0.684,0.52,1.083,0.811c0.201,0.146,0.403,0.291,0.616,0.44
			c0.374,0.261,0.748,0.511,1.12,0.756l1.303-1.986l-1.224,2.038c0.161,0.107,0.321,0.213,0.465,0.304
			c0.538,0.341,1.075,0.665,1.604,0.97c0.161,0.093,0.32,0.182,0.527,0.294c0.379,0.213,0.757,0.42,1.139,0.618
			c0.222,0.115,0.44,0.225,0.63,0.319c0.329,0.165,0.656,0.324,1.001,0.488c0.219,0.103,0.437,0.204,0.642,0.297
			c0.337,0.152,0.67,0.296,0.985,0.429l0.587,0.248c0.465,0.189,0.923,0.366,1.438,0.557l0.318,0.113
			c0.396,0.143,0.787,0.277,1.209,0.417l0.511,0.162c0.294,0.093,0.585,0.181,0.922,0.28l0.518,0.147
			c0.282,0.078,0.557,0.151,0.867,0.23l0.482,0.123c0.323,0.079,0.636,0.151,0.912,0.212l0.317,0.071
			c0.397,0.086,0.777,0.16,1.174,0.234l0.34,0.06c0.252,0.045,0.498,0.087,0.778,0.132l1.356,0.192
			c0.225,0.027,0.433,0.052,0.596,0.069l0.273,0.03c0.27,0.027,0.521,0.049,0.77,0.068l1.374,0.076c0.003,0,0.122,0.004,0.125,0.004
			l0.185,0.004c0.016,0,0.097,0.001,0.112,0.001l0.176,0c3.255,0.208,7.593,0.314,12.896,0.314c0.012,0,0.024,0,0.036,0
			c26.454,0,71.87-2.529,96.304-3.89c6.62-0.368,12.873-0.717,13.826-0.728c10.027-0.083,16.874-6.071,19.69-11.174
			c0.178-0.323,0.342-0.655,0.489-0.992c0.337-0.772,0.645-1.547,1.004-2.52l0.116-0.317c6.244-17.432-1.656-30.258-11.129-36.449
			c-4.57-2.991-9.051-3.644-10.316-3.773c-0.45-0.046-0.886-0.066-1.323-0.06l-10.694,0.108c-0.429,0.005-0.862,0.034-1.289,0.084
			c-1.479,0.177-2.959,0.36-4.46,0.547c-1.513,0.189-3.026,0.377-4.54,0.557c-8.234-40.041,13.087-102.733,28.731-148.727
			c9.273-27.264,13.997-54.322,13.662-78.249c-0.296-21.133-4.53-39.142-11.921-50.707c-6.679-10.45-14.374-13.311-19.653-13.87
			c-0.414-0.044-0.835-0.066-1.252-0.066h-0.534c-0.29,0-0.58,0.01-0.867,0.031c-6.817,0.5-13.392,1.59-18.36,2.485
			c-1.4,0.254-2.8,0.513-4.257,0.781c-4.147,0.766-8.064,1.488-12.016,2.075c-4.696,0.696-9.826,1.043-15.686,1.059
			c-8.67,0.033-17.139-0.653-24.419-1.302l-1.417-0.125c-7.712-0.685-15.686-1.393-23.412-2.33
			c-1.376-0.166-2.753-0.329-4.136-0.493c-4.271-0.504-8.688-1.028-12.937-1.652c-5.179-0.761-8.633-0.705-11.512,0.191
			c-0.223,0.048-0.445,0.099-0.667,0.152l-0.431,0.106c-0.25,0.063-0.5,0.129-0.791,0.209l-0.479,0.137
			c-0.251,0.074-0.503,0.15-0.717,0.219l-0.482,0.155c-0.287,0.096-0.577,0.197-0.888,0.31l-0.379,0.138
			c-0.4,0.15-0.804,0.311-1.222,0.484l-0.346,0.149c-0.31,0.134-0.621,0.272-0.933,0.417l-0.468,0.223
			c-0.279,0.134-0.558,0.272-0.833,0.414l-0.5,0.261c-0.285,0.153-0.571,0.312-0.928,0.515l-0.354,0.203
			c-0.436,0.256-0.871,0.523-1.265,0.779l-0.269,0.178c-0.35,0.231-0.701,0.472-1.099,0.755l-0.371,0.271
			c-0.293,0.215-0.583,0.435-0.934,0.71l-0.426,0.341c-0.283,0.231-0.565,0.468-0.922,0.778l-0.357,0.313
			c-0.341,0.308-0.679,0.624-0.972,0.91c-0.092,0.086-0.208,0.199-0.28,0.27c-0.403,0.4-0.8,0.816-1.189,1.243
			c-0.119,0.131-0.238,0.266-0.38,0.431c-0.27,0.306-0.535,0.616-0.782,0.918c-0.137,0.166-0.271,0.335-0.443,0.552
			c-0.24,0.307-0.477,0.619-0.745,0.985c-0.131,0.18-0.261,0.359-0.359,0.499c-0.272,0.388-0.538,0.788-0.744,1.111
			c-0.11,0.164-0.217,0.33-0.298,0.458c-0.333,0.534-0.655,1.086-0.974,1.666c-0.083,0.152-0.164,0.308-0.245,0.464
			c-0.22,0.415-0.435,0.837-0.645,1.273c-0.09,0.19-0.177,0.38-0.301,0.651c-0.179,0.393-0.352,0.792-0.521,1.201
			c-0.094,0.23-0.188,0.46-0.279,0.694c-0.171,0.442-0.335,0.895-0.514,1.417c-0.067,0.187-0.131,0.373-0.18,0.525
			c-0.212,0.646-0.41,1.309-0.614,2.071l-0.092,0.376c-0.137,0.538-0.267,1.086-0.385,1.649c-0.04,0.196-0.08,0.396-0.119,0.599
			l-0.023,0.123c-0.091,0.472-0.175,0.95-0.256,1.468c-0.04,0.258-0.078,0.516-0.114,0.775c-0.069,0.501-0.128,1.013-0.178,1.502
			l-0.013,0.119c-0.023,0.205-0.044,0.409-0.064,0.636c-0.064,0.747-0.115,1.507-0.144,2.287c-0.035,0.921-0.048,1.808-0.049,2.711
			l0.006,0.767c0.007,0.622,0.021,1.23,0.045,1.854l0.034,0.796c0.036,0.683,0.082,1.347,0.136,1.988
			c0.012,0.165,0.024,0.331,0.038,0.464c0.076,0.812,0.169,1.594,0.273,2.34c0.026,0.187,0.054,0.368,0.094,0.613
			c0.088,0.58,0.184,1.146,0.294,1.726l0.136,0.691c0.117,0.56,0.239,1.103,0.389,1.707l0.117,0.471
			c0.189,0.719,0.391,1.414,0.589,2.029c0.052,0.162,0.105,0.319,0.15,0.445c0.184,0.551,0.377,1.086,0.598,1.652l0.214,0.531
			c0.199,0.485,0.405,0.955,0.646,1.474c0.067,0.147,0.136,0.295,0.213,0.454c0.602,1.235,1.286,2.428,2.051,3.572l0.245,0.354
			c0.296,0.428,0.599,0.838,0.939,1.273l0.278,0.351c0.336,0.414,0.677,0.811,1.029,1.195l0.237,0.26
			c0.44,0.467,0.9,0.919,1.42,1.391c0.114,0.103,0.228,0.203,0.254,0.224c0.395,0.346,0.792,0.676,1.146,0.947
			c0.146,0.114,0.292,0.226,0.41,0.313c0.356,0.265,0.715,0.517,1.049,0.737c0.146,0.101,0.301,0.203,0.428,0.283
			c0.112,0.072,0.226,0.141,0.294,0.18c3.482,2.131,7.412,3.281,11.271,3.324c1.386,0.069,4.908,0.088,17.52,0.115
			c-2.782,33.431-15.897,74.699-26.493,108.035C32.892,223.597,28.17,238.453,25.647,249.73z"/>
		<path style="fill:#F1F1F1;" d="M24.221,248.305L24.221,248.305c-4.882,21.82-7.187,56.368,0.984,87.891
			c1.604,6.186,4.023,11.752,7.055,16.589c0.071,0.114,0.144,0.228,0.24,0.373c0.06,0.09,0.114,0.169,0.115,0.169
			c0,0,0-0.001-0.001-0.003c0.393,0.6,0.792,1.183,1.184,1.727c0.15,0.209,0.302,0.413,0.452,0.611l0.086,0.115
			c0.318,0.427,0.64,0.845,0.967,1.253c0.197,0.246,0.395,0.487,0.599,0.732c0.327,0.392,0.658,0.773,0.987,1.143l0.1,0.112
			c0.163,0.184,0.326,0.367,0.478,0.53c0.412,0.445,0.83,0.87,1.22,1.266c0.122,0.124,0.243,0.25,0.377,0.381
			c0.528,0.515,1.06,1.007,1.602,1.488c0.172,0.151,0.344,0.298,0.521,0.447l0.057,0.048c0.358,0.306,0.716,0.607,1.08,0.899
			c0.228,0.183,0.455,0.359,0.664,0.521c0.342,0.264,0.684,0.521,1.083,0.811c0.201,0.146,0.403,0.29,0.616,0.44
			c0.374,0.262,0.747,0.512,1.119,0.755l1.303-1.985l-1.224,2.039c0.16,0.106,0.321,0.213,0.465,0.303
			c0.538,0.342,1.075,0.666,1.604,0.971c0.16,0.093,0.32,0.18,0.527,0.294c0.38,0.21,0.757,0.419,1.139,0.618
			c0.222,0.116,0.44,0.225,0.63,0.32c0.329,0.164,0.656,0.324,1.001,0.487c0.219,0.103,0.436,0.204,0.642,0.297
			c0.337,0.152,0.67,0.296,0.985,0.429l0.587,0.247c0.465,0.189,0.922,0.367,1.439,0.557l0.317,0.114
			c0.396,0.142,0.787,0.277,1.21,0.417l0.511,0.161c0.294,0.093,0.585,0.182,0.922,0.281l0.518,0.147
			c0.282,0.078,0.557,0.152,0.866,0.231l0.483,0.123c0.322,0.079,0.636,0.151,0.912,0.211l0.317,0.071
			c0.397,0.086,0.777,0.161,1.174,0.235l0.34,0.06c0.252,0.045,0.498,0.087,0.778,0.131l1.356,0.192
			c0.225,0.027,0.434,0.052,0.597,0.068l0.273,0.029c0.27,0.027,0.521,0.049,0.77,0.069l1.374,0.077
			c0.004,0,0.123,0.003,0.125,0.003l0.185,0.003c0.016,0.001,0.097,0.002,0.112,0.002h0.176c3.255,0.208,7.593,0.313,12.896,0.313
			c0.012,0,0.024,0,0.036,0c26.454,0,71.871-2.528,96.304-3.889c6.62-0.369,12.872-0.717,13.825-0.728
			c10.028-0.085,16.874-6.072,19.69-11.175c0.178-0.323,0.341-0.654,0.488-0.992c0.336-0.772,0.646-1.547,1.004-2.519l0.116-0.318
			c6.244-17.432-1.656-30.258-11.129-36.448c-4.569-2.992-9.051-3.644-10.316-3.773c-0.449-0.046-0.885-0.067-1.322-0.061
			l-10.694,0.108c-0.429,0.005-0.862,0.033-1.289,0.084c-1.48,0.177-2.959,0.36-4.461,0.547c-1.513,0.189-3.026,0.376-4.539,0.557
			c-8.235-40.041,13.087-102.732,28.731-148.728c9.273-27.263,13.997-54.321,13.662-78.248c-0.296-21.133-4.53-39.142-11.921-50.707
			c-6.679-10.45-14.373-13.311-19.653-13.87c-0.415-0.044-0.835-0.066-1.252-0.066h-0.535c-0.29,0-0.58,0.011-0.867,0.032
			c-6.816,0.499-13.392,1.59-18.36,2.485c-1.4,0.253-2.8,0.512-4.257,0.781c-4.148,0.765-8.064,1.488-12.016,2.075
			c-4.696,0.696-9.826,1.042-15.686,1.059c-8.669,0.033-17.139-0.654-24.419-1.301l-1.417-0.125
			c-7.711-0.685-15.686-1.393-23.411-2.33c-1.377-0.167-2.754-0.33-4.136-0.493c-4.271-0.505-8.688-1.027-12.937-1.652
			c-5.179-0.761-8.633-0.705-11.511,0.191c-0.223,0.048-0.445,0.099-0.667,0.152l-0.432,0.107c-0.25,0.063-0.5,0.128-0.791,0.209
			l-0.479,0.137c-0.251,0.074-0.503,0.15-0.716,0.219l-0.482,0.155c-0.287,0.095-0.576,0.197-0.887,0.309l-0.379,0.138
			c-0.4,0.15-0.805,0.311-1.222,0.484l-0.346,0.149c-0.31,0.133-0.621,0.272-0.933,0.417l-0.468,0.223
			c-0.279,0.135-0.558,0.273-0.833,0.415l-0.5,0.261c-0.285,0.153-0.57,0.312-0.928,0.515l-0.354,0.203
			c-0.436,0.256-0.871,0.523-1.265,0.778l-0.269,0.178c-0.35,0.231-0.701,0.471-1.1,0.755l-0.37,0.271
			c-0.293,0.214-0.583,0.435-0.935,0.71l-0.425,0.341c-0.283,0.231-0.564,0.468-0.922,0.778l-0.357,0.313
			c-0.341,0.307-0.676,0.626-0.972,0.91c-0.091,0.087-0.209,0.199-0.28,0.269c-0.403,0.401-0.8,0.817-1.188,1.243
			c-0.119,0.132-0.237,0.268-0.38,0.431c-0.268,0.308-0.535,0.617-0.782,0.919c-0.136,0.166-0.272,0.334-0.442,0.552
			c-0.241,0.306-0.477,0.619-0.745,0.985c-0.132,0.18-0.262,0.359-0.359,0.5c-0.272,0.388-0.535,0.789-0.745,1.11
			c-0.108,0.165-0.217,0.329-0.297,0.459c-0.333,0.534-0.655,1.085-0.974,1.666c-0.083,0.152-0.163,0.308-0.245,0.463
			c-0.218,0.417-0.434,0.838-0.644,1.275c-0.09,0.189-0.178,0.38-0.301,0.651c-0.179,0.393-0.352,0.792-0.521,1.201
			c-0.094,0.23-0.187,0.46-0.279,0.694c-0.172,0.442-0.332,0.896-0.515,1.416c-0.066,0.188-0.131,0.374-0.179,0.525
			c-0.21,0.647-0.41,1.31-0.614,2.071l-0.092,0.376c-0.138,0.538-0.267,1.087-0.385,1.648c-0.041,0.197-0.08,0.397-0.119,0.6
			l-0.023,0.123c-0.09,0.472-0.176,0.95-0.256,1.468c-0.04,0.257-0.079,0.515-0.114,0.776c-0.068,0.501-0.128,1.013-0.177,1.501
			l-0.013,0.119c-0.023,0.204-0.044,0.409-0.063,0.637c-0.064,0.746-0.115,1.507-0.145,2.287c-0.035,0.92-0.049,1.808-0.05,2.711
			l0.006,0.767c0.007,0.622,0.021,1.23,0.045,1.854l0.034,0.796c0.036,0.683,0.086,1.346,0.136,1.987
			c0.013,0.165,0.025,0.33,0.038,0.464c0.079,0.812,0.169,1.593,0.273,2.339c0.026,0.188,0.055,0.368,0.094,0.613
			c0.091,0.579,0.183,1.146,0.294,1.727l0.136,0.691c0.116,0.56,0.239,1.101,0.389,1.707l0.117,0.47
			c0.189,0.72,0.392,1.414,0.589,2.029c0.052,0.162,0.106,0.318,0.15,0.445c0.19,0.549,0.377,1.087,0.597,1.652l0.214,0.531
			c0.2,0.485,0.407,0.955,0.646,1.474c0.068,0.147,0.136,0.294,0.213,0.454c0.602,1.235,1.286,2.427,2.052,3.572l0.245,0.354
			c0.296,0.427,0.599,0.838,0.939,1.273l0.278,0.351c0.335,0.414,0.677,0.811,1.029,1.196l0.237,0.26
			c0.44,0.467,0.899,0.92,1.419,1.391c0.114,0.103,0.229,0.202,0.254,0.223c0.394,0.347,0.793,0.675,1.145,0.948
			c0.146,0.113,0.292,0.226,0.41,0.313c0.356,0.265,0.716,0.513,1.049,0.737c0.147,0.099,0.301,0.202,0.428,0.283
			c0.112,0.071,0.226,0.14,0.294,0.179c3.514,2.079,7.412,3.282,11.272,3.324c1.386,0.069,4.908,0.088,17.52,0.115
			c-2.782,33.431-15.897,74.698-26.493,108.034C31.466,222.171,26.745,237.027,24.221,248.305z"/>
		<path style="fill:#E2E2E2;" d="M22.795,246.878h-0.001c-4.881,21.821-7.186,56.368,0.985,87.891
			c1.604,6.187,4.023,11.752,7.055,16.589c0.071,0.114,0.144,0.229,0.24,0.372c0.06,0.09,0.114,0.169,0.115,0.169
			c0,0,0,0-0.001-0.002c0.392,0.6,0.792,1.183,1.184,1.727c0.15,0.209,0.303,0.413,0.452,0.61l0.086,0.115
			c0.319,0.427,0.64,0.845,0.967,1.253c0.197,0.245,0.394,0.487,0.598,0.732c0.328,0.392,0.658,0.773,0.988,1.142l0.099,0.112
			c0.163,0.184,0.327,0.367,0.479,0.53c0.412,0.445,0.831,0.87,1.22,1.265c0.123,0.124,0.244,0.25,0.377,0.381
			c0.529,0.516,1.06,1.008,1.602,1.488c0.171,0.151,0.344,0.297,0.521,0.447l0.057,0.047c0.357,0.307,0.716,0.608,1.08,0.9
			c0.228,0.183,0.455,0.358,0.664,0.52c0.341,0.265,0.684,0.521,1.083,0.811c0.201,0.146,0.403,0.291,0.616,0.44
			c0.374,0.262,0.747,0.511,1.119,0.755l1.303-1.985l-1.224,2.038c0.161,0.107,0.322,0.214,0.465,0.304
			c0.538,0.342,1.075,0.666,1.604,0.972c0.161,0.093,0.321,0.18,0.527,0.294c0.381,0.21,0.757,0.419,1.139,0.617
			c0.222,0.116,0.441,0.225,0.63,0.32c0.329,0.165,0.656,0.324,1.001,0.487c0.219,0.103,0.437,0.204,0.643,0.297
			c0.336,0.152,0.669,0.296,0.984,0.43l0.586,0.247c0.465,0.189,0.923,0.366,1.438,0.557l0.318,0.114
			c0.396,0.142,0.787,0.277,1.21,0.416l0.511,0.161c0.294,0.093,0.584,0.182,0.922,0.281l0.518,0.146
			c0.282,0.078,0.557,0.152,0.866,0.232l0.483,0.122c0.322,0.078,0.635,0.15,0.911,0.212l0.317,0.071
			c0.397,0.085,0.777,0.16,1.174,0.235l0.34,0.06c0.252,0.045,0.499,0.087,0.778,0.131l1.356,0.193
			c0.225,0.027,0.433,0.051,0.597,0.067l0.273,0.03c0.27,0.027,0.521,0.049,0.77,0.069l1.374,0.077c0.003,0,0.122,0.003,0.125,0.003
			l0.185,0.004c0.016,0.001,0.097,0.002,0.113,0.002h0.175c3.255,0.208,7.593,0.313,12.897,0.313c0.012,0,0.024,0,0.036,0
			c26.454,0,71.87-2.528,96.304-3.888c6.62-0.369,12.874-0.717,13.826-0.729c10.028-0.084,16.874-6.072,19.69-11.175
			c0.178-0.323,0.341-0.655,0.488-0.992c0.336-0.773,0.646-1.547,1.004-2.519l0.116-0.318c6.244-17.432-1.656-30.258-11.129-36.448
			c-4.569-2.992-9.051-3.645-10.316-3.773c-0.45-0.046-0.885-0.067-1.322-0.06l-10.695,0.108c-0.429,0.004-0.862,0.032-1.289,0.083
			c-1.48,0.178-2.959,0.361-4.461,0.548c-1.513,0.188-3.026,0.376-4.539,0.557c-8.234-40.041,13.087-102.732,28.731-148.728
			c9.273-27.264,13.997-54.321,13.662-78.248c-0.296-21.134-4.53-39.143-11.921-50.707c-6.679-10.45-14.374-13.311-19.653-13.87
			c-0.414-0.045-0.835-0.066-1.252-0.066h-0.534c-0.291,0-0.58,0.011-0.867,0.032c-6.816,0.498-13.392,1.59-18.36,2.485
			c-1.4,0.254-2.8,0.512-4.257,0.781c-4.147,0.766-8.063,1.488-12.016,2.074c-4.696,0.696-9.826,1.043-15.686,1.06
			c-8.669,0.032-17.139-0.654-24.419-1.302l-1.417-0.126c-7.711-0.685-15.686-1.392-23.411-2.33
			c-1.377-0.167-2.753-0.33-4.136-0.493c-4.271-0.505-8.687-1.028-12.937-1.653c-5.178-0.76-8.633-0.705-11.511,0.191
			c-0.223,0.048-0.445,0.099-0.667,0.152l-0.432,0.107c-0.25,0.063-0.5,0.128-0.791,0.209l-0.479,0.137
			c-0.251,0.073-0.502,0.15-0.717,0.219l-0.482,0.155c-0.287,0.096-0.577,0.198-0.887,0.309l-0.379,0.138
			c-0.4,0.151-0.805,0.311-1.222,0.485l-0.346,0.148c-0.309,0.134-0.62,0.271-0.933,0.417l-0.468,0.223
			c-0.279,0.134-0.558,0.273-0.833,0.416l-0.5,0.261c-0.285,0.152-0.57,0.31-0.928,0.515l-0.354,0.203
			c-0.437,0.256-0.871,0.523-1.265,0.778l-0.269,0.179c-0.35,0.23-0.702,0.471-1.1,0.754l-0.371,0.272
			c-0.292,0.214-0.583,0.435-0.935,0.711l-0.425,0.341c-0.284,0.23-0.565,0.467-0.922,0.778l-0.357,0.314
			c-0.341,0.306-0.676,0.626-0.972,0.909c-0.092,0.088-0.209,0.198-0.28,0.269c-0.403,0.401-0.8,0.817-1.188,1.243
			c-0.12,0.131-0.237,0.267-0.38,0.431c-0.268,0.308-0.535,0.617-0.782,0.919c-0.136,0.165-0.271,0.334-0.442,0.552
			c-0.24,0.305-0.477,0.619-0.745,0.984c-0.132,0.18-0.262,0.359-0.359,0.5c-0.272,0.387-0.535,0.789-0.745,1.109
			c-0.108,0.166-0.217,0.33-0.297,0.459c-0.332,0.534-0.655,1.085-0.974,1.666c-0.083,0.152-0.163,0.308-0.245,0.463
			c-0.217,0.416-0.435,0.837-0.644,1.274c-0.09,0.188-0.178,0.379-0.301,0.65c-0.179,0.393-0.352,0.792-0.521,1.201
			c-0.094,0.229-0.187,0.46-0.279,0.694c-0.172,0.442-0.332,0.896-0.515,1.416c-0.065,0.187-0.13,0.374-0.18,0.525
			c-0.209,0.648-0.409,1.31-0.613,2.072l-0.093,0.376c-0.137,0.538-0.267,1.087-0.384,1.648c-0.041,0.197-0.081,0.397-0.119,0.6
			l-0.023,0.123c-0.09,0.471-0.175,0.95-0.256,1.467c-0.04,0.257-0.079,0.515-0.114,0.776c-0.068,0.501-0.128,1.013-0.178,1.502
			l-0.013,0.119c-0.022,0.204-0.043,0.408-0.063,0.636c-0.064,0.747-0.115,1.507-0.144,2.288c-0.035,0.92-0.049,1.808-0.05,2.71
			l0.006,0.766c0.007,0.622,0.021,1.231,0.045,1.854l0.034,0.796c0.036,0.683,0.085,1.346,0.136,1.987
			c0.013,0.165,0.025,0.331,0.038,0.465c0.079,0.811,0.169,1.593,0.273,2.34c0.026,0.187,0.055,0.367,0.094,0.613
			c0.091,0.579,0.183,1.146,0.293,1.727l0.137,0.691c0.116,0.56,0.239,1.101,0.389,1.706l0.117,0.47
			c0.189,0.72,0.392,1.414,0.588,2.029c0.052,0.163,0.107,0.319,0.15,0.445c0.191,0.549,0.378,1.087,0.598,1.653l0.214,0.531
			c0.199,0.485,0.407,0.955,0.646,1.473c0.068,0.148,0.137,0.295,0.213,0.455c0.602,1.235,1.286,2.427,2.051,3.573l0.245,0.354
			c0.296,0.427,0.599,0.838,0.938,1.272l0.278,0.351c0.336,0.414,0.677,0.811,1.03,1.196l0.237,0.26
			c0.439,0.466,0.898,0.92,1.419,1.391c0.114,0.103,0.229,0.201,0.254,0.223c0.395,0.347,0.794,0.675,1.146,0.948
			c0.146,0.113,0.292,0.226,0.411,0.313c0.356,0.266,0.717,0.514,1.049,0.737c0.147,0.099,0.301,0.203,0.428,0.283
			c0.112,0.071,0.227,0.139,0.294,0.179c3.514,2.078,7.412,3.281,11.272,3.324c1.386,0.069,4.908,0.088,17.519,0.114
			c-2.781,33.431-15.897,74.699-26.493,108.035C30.039,220.745,25.318,235.602,22.795,246.878z"/>
		<path style="fill:#D4D4D4;" d="M21.369,245.452L21.369,245.452c-4.882,21.82-7.187,56.368,0.984,87.891
			c1.604,6.186,4.023,11.752,7.055,16.589c0.071,0.114,0.144,0.228,0.24,0.373c0.06,0.09,0.114,0.169,0.115,0.169
			c0,0,0-0.001-0.001-0.002c0.393,0.599,0.792,1.183,1.184,1.726c0.15,0.209,0.302,0.413,0.452,0.611l0.087,0.115
			c0.318,0.427,0.64,0.845,0.967,1.253c0.197,0.245,0.394,0.487,0.598,0.731c0.328,0.393,0.658,0.773,0.988,1.143l0.099,0.112
			c0.163,0.184,0.327,0.367,0.479,0.53c0.412,0.445,0.83,0.871,1.22,1.266c0.122,0.125,0.244,0.25,0.377,0.381
			c0.528,0.516,1.06,1.007,1.602,1.487c0.171,0.152,0.343,0.298,0.521,0.448l0.057,0.047c0.357,0.306,0.715,0.607,1.08,0.9
			c0.227,0.182,0.455,0.359,0.664,0.52c0.342,0.265,0.684,0.521,1.083,0.812c0.201,0.145,0.402,0.291,0.615,0.44
			c0.374,0.261,0.748,0.51,1.12,0.755l1.303-1.985l-1.224,2.038c0.161,0.107,0.321,0.213,0.465,0.304
			c0.538,0.342,1.075,0.666,1.604,0.971c0.161,0.093,0.32,0.181,0.527,0.294c0.38,0.21,0.758,0.419,1.139,0.618
			c0.222,0.115,0.44,0.224,0.63,0.319c0.329,0.165,0.656,0.324,1.001,0.487c0.219,0.103,0.436,0.204,0.642,0.297
			c0.337,0.152,0.669,0.296,0.984,0.429l0.587,0.248c0.465,0.188,0.923,0.366,1.438,0.557l0.318,0.113
			c0.396,0.143,0.787,0.277,1.209,0.417l0.511,0.161c0.294,0.093,0.585,0.181,0.922,0.28l0.518,0.148
			c0.282,0.078,0.557,0.152,0.867,0.231l0.483,0.122c0.322,0.079,0.635,0.151,0.912,0.213l0.317,0.071
			c0.397,0.085,0.777,0.16,1.174,0.234l0.34,0.06c0.252,0.046,0.498,0.088,0.778,0.132l1.356,0.192
			c0.225,0.027,0.433,0.052,0.597,0.068l0.272,0.03c0.27,0.027,0.521,0.049,0.77,0.069l1.374,0.076c0.003,0,0.122,0.003,0.125,0.003
			l0.185,0.003c0.016,0.001,0.097,0.002,0.112,0.002h0.176c3.255,0.207,7.593,0.313,12.896,0.313c0.012,0,0.024,0,0.036,0
			c26.454,0,71.87-2.528,96.304-3.889c6.62-0.368,12.873-0.717,13.826-0.728c10.027-0.083,16.874-6.071,19.69-11.174
			c0.179-0.323,0.342-0.655,0.489-0.992c0.336-0.772,0.645-1.547,1.004-2.52l0.116-0.317c6.244-17.432-1.655-30.258-11.129-36.449
			c-4.57-2.992-9.051-3.644-10.316-3.773c-0.45-0.045-0.886-0.066-1.323-0.061l-10.694,0.108c-0.429,0.005-0.862,0.033-1.289,0.084
			c-1.479,0.177-2.959,0.361-4.46,0.547c-1.513,0.189-3.026,0.377-4.54,0.557c-8.234-40.041,13.087-102.732,28.731-148.727
			c9.273-27.263,13.998-54.322,13.662-78.249c-0.296-21.133-4.53-39.142-11.921-50.707c-6.679-10.45-14.374-13.311-19.653-13.87
			c-0.414-0.044-0.835-0.066-1.252-0.066h-0.534c-0.29,0-0.58,0.011-0.867,0.032c-6.816,0.499-13.392,1.591-18.36,2.486
			c-1.4,0.253-2.8,0.511-4.257,0.781c-4.147,0.765-8.064,1.488-12.016,2.074c-4.696,0.696-9.826,1.043-15.686,1.059
			c-8.67,0.033-17.139-0.654-24.419-1.302l-1.418-0.126c-7.711-0.685-15.686-1.392-23.412-2.33
			c-1.376-0.167-2.753-0.329-4.136-0.493c-4.271-0.505-8.687-1.028-12.937-1.652c-5.179-0.761-8.633-0.705-11.512,0.191
			c-0.223,0.048-0.445,0.099-0.667,0.152l-0.431,0.107c-0.249,0.063-0.5,0.129-0.791,0.209l-0.479,0.138
			c-0.251,0.073-0.504,0.15-0.717,0.219l-0.482,0.155c-0.287,0.096-0.577,0.197-0.887,0.309l-0.38,0.139
			c-0.4,0.15-0.804,0.31-1.222,0.484l-0.346,0.149c-0.31,0.133-0.621,0.271-0.933,0.416l-0.468,0.223
			c-0.279,0.135-0.558,0.274-0.833,0.416l-0.5,0.26c-0.285,0.153-0.571,0.311-0.928,0.515l-0.354,0.204
			c-0.436,0.255-0.871,0.522-1.264,0.778l-0.27,0.178c-0.35,0.231-0.701,0.472-1.099,0.755l-0.371,0.271
			c-0.293,0.215-0.583,0.435-0.935,0.71l-0.426,0.341c-0.283,0.229-0.564,0.467-0.922,0.777l-0.357,0.313
			c-0.341,0.307-0.676,0.626-0.972,0.91c-0.092,0.087-0.208,0.198-0.28,0.269c-0.403,0.401-0.8,0.817-1.188,1.243
			c-0.119,0.131-0.237,0.268-0.38,0.432c-0.268,0.307-0.536,0.616-0.782,0.917c-0.137,0.167-0.272,0.335-0.442,0.552
			c-0.241,0.306-0.477,0.62-0.745,0.985c-0.132,0.18-0.262,0.359-0.36,0.499c-0.272,0.388-0.535,0.789-0.744,1.11
			c-0.109,0.166-0.217,0.33-0.297,0.459c-0.334,0.534-0.656,1.086-0.974,1.667c-0.083,0.151-0.164,0.308-0.245,0.463
			c-0.218,0.417-0.435,0.837-0.644,1.274c-0.09,0.189-0.178,0.379-0.301,0.651c-0.179,0.392-0.352,0.792-0.521,1.201
			c-0.094,0.23-0.188,0.459-0.279,0.694c-0.171,0.442-0.332,0.896-0.514,1.416c-0.066,0.188-0.13,0.374-0.18,0.525
			c-0.21,0.648-0.41,1.31-0.614,2.071l-0.092,0.376c-0.137,0.538-0.267,1.087-0.385,1.648c-0.041,0.197-0.08,0.396-0.119,0.6
			l-0.023,0.123c-0.091,0.472-0.176,0.95-0.256,1.467c-0.04,0.258-0.079,0.516-0.114,0.776c-0.069,0.501-0.128,1.013-0.178,1.502
			l-0.013,0.119c-0.022,0.205-0.043,0.409-0.063,0.636c-0.064,0.747-0.115,1.507-0.145,2.287c-0.035,0.921-0.048,1.808-0.049,2.711
			l0.006,0.767c0.007,0.622,0.021,1.231,0.045,1.854l0.034,0.796c0.036,0.683,0.085,1.347,0.136,1.987
			c0.013,0.165,0.025,0.33,0.038,0.464c0.079,0.812,0.169,1.593,0.273,2.34c0.026,0.187,0.056,0.367,0.094,0.613
			c0.091,0.579,0.184,1.146,0.294,1.727l0.136,0.691c0.117,0.56,0.239,1.102,0.389,1.707l0.117,0.47
			c0.188,0.72,0.392,1.414,0.588,2.029c0.052,0.162,0.107,0.318,0.15,0.445c0.191,0.549,0.378,1.087,0.598,1.653l0.214,0.531
			c0.199,0.484,0.406,0.955,0.646,1.474c0.068,0.148,0.136,0.295,0.213,0.454c0.602,1.235,1.286,2.427,2.051,3.572l0.245,0.354
			c0.296,0.428,0.599,0.838,0.938,1.274l0.278,0.351c0.335,0.413,0.677,0.81,1.029,1.195l0.238,0.26
			c0.44,0.467,0.898,0.92,1.419,1.391c0.113,0.104,0.228,0.202,0.254,0.224c0.395,0.346,0.794,0.674,1.146,0.947
			c0.146,0.114,0.292,0.226,0.41,0.313c0.356,0.265,0.717,0.513,1.049,0.737c0.148,0.099,0.301,0.202,0.429,0.283
			c0.112,0.071,0.226,0.139,0.294,0.179c3.514,2.078,7.412,3.281,11.272,3.324c1.385,0.069,4.908,0.088,17.519,0.115
			c-2.782,33.431-15.897,74.699-26.493,108.035C28.613,219.318,23.892,234.175,21.369,245.452z"/>
		<path style="fill:#C5C5C5;" d="M19.942,244.026L19.942,244.026c-4.882,21.82-7.187,56.367,0.984,87.891
			c1.604,6.187,4.023,11.752,7.055,16.589c0.071,0.114,0.144,0.228,0.24,0.373c0.06,0.09,0.113,0.169,0.115,0.169
			c0,0,0-0.001-0.001-0.003c0.393,0.599,0.792,1.183,1.184,1.727c0.15,0.209,0.302,0.413,0.452,0.611l0.086,0.115
			c0.318,0.427,0.64,0.845,0.967,1.252c0.197,0.246,0.394,0.487,0.598,0.732c0.328,0.392,0.658,0.773,0.988,1.143l0.099,0.112
			c0.163,0.184,0.327,0.366,0.479,0.53c0.412,0.445,0.831,0.87,1.22,1.265c0.122,0.124,0.243,0.25,0.376,0.382
			c0.529,0.515,1.06,1.006,1.602,1.487c0.171,0.152,0.343,0.298,0.521,0.448l0.057,0.046c0.358,0.307,0.716,0.607,1.08,0.9
			c0.227,0.182,0.455,0.359,0.663,0.52c0.342,0.265,0.685,0.521,1.084,0.812c0.201,0.146,0.402,0.292,0.615,0.441
			c0.375,0.261,0.747,0.51,1.119,0.755l1.303-1.986l-1.224,2.038c0.161,0.108,0.321,0.214,0.465,0.305
			c0.538,0.341,1.075,0.665,1.604,0.971c0.161,0.093,0.321,0.18,0.527,0.294c0.38,0.21,0.758,0.419,1.139,0.618
			c0.222,0.115,0.44,0.225,0.63,0.319c0.329,0.165,0.656,0.325,1.001,0.488c0.219,0.103,0.436,0.204,0.642,0.296
			c0.337,0.152,0.67,0.296,0.985,0.429l0.586,0.248c0.465,0.189,0.922,0.367,1.438,0.557l0.318,0.114
			c0.396,0.143,0.787,0.277,1.209,0.416l0.511,0.161c0.294,0.093,0.585,0.181,0.922,0.28l0.518,0.148
			c0.282,0.078,0.557,0.152,0.866,0.231l0.483,0.122c0.322,0.079,0.635,0.151,0.911,0.213l0.317,0.071
			c0.397,0.085,0.777,0.159,1.174,0.233l0.34,0.06c0.252,0.045,0.498,0.087,0.778,0.132l1.356,0.192
			c0.225,0.027,0.433,0.052,0.597,0.069l0.272,0.029c0.27,0.027,0.521,0.049,0.77,0.069l1.374,0.076
			c0.003,0,0.122,0.003,0.125,0.003l0.185,0.004c0.016,0,0.097,0.001,0.112,0.001l0.176,0.001c3.255,0.207,7.593,0.313,12.896,0.313
			c0.012,0,0.024,0,0.035,0c26.455,0,71.871-2.529,96.304-3.889c6.62-0.369,12.873-0.717,13.826-0.728
			c10.027-0.084,16.874-6.071,19.69-11.175c0.178-0.322,0.341-0.655,0.489-0.991c0.336-0.773,0.645-1.548,1.004-2.52l0.116-0.317
			c6.244-17.432-1.655-30.258-11.129-36.449c-4.57-2.991-9.051-3.644-10.316-3.773c-0.45-0.045-0.886-0.066-1.322-0.06
			l-10.695,0.109c-0.429,0.004-0.862,0.033-1.289,0.083c-1.48,0.178-2.959,0.361-4.46,0.548c-1.513,0.188-3.026,0.376-4.54,0.557
			c-8.235-40.041,13.087-102.733,28.732-148.728c9.273-27.263,13.997-54.321,13.662-78.249c-0.297-21.133-4.53-39.141-11.922-50.707
			c-6.679-10.45-14.374-13.311-19.653-13.87c-0.415-0.044-0.835-0.066-1.252-0.066h-0.534c-0.291,0-0.58,0.01-0.867,0.032
			c-6.816,0.498-13.393,1.59-18.36,2.485c-1.4,0.253-2.8,0.512-4.257,0.78c-4.146,0.766-8.064,1.489-12.016,2.075
			c-4.696,0.696-9.826,1.043-15.686,1.059c-8.67,0.033-17.139-0.653-24.419-1.302l-1.418-0.126
			c-7.711-0.684-15.686-1.392-23.411-2.33c-1.376-0.166-2.753-0.329-4.136-0.492c-4.271-0.505-8.687-1.028-12.937-1.653
			c-5.179-0.76-8.633-0.705-11.511,0.192c-0.223,0.047-0.444,0.098-0.666,0.151l-0.431,0.107c-0.25,0.063-0.501,0.129-0.792,0.209
			l-0.479,0.137c-0.251,0.074-0.503,0.15-0.717,0.219l-0.481,0.156c-0.287,0.095-0.576,0.196-0.888,0.309l-0.379,0.139
			c-0.4,0.15-0.804,0.31-1.222,0.484l-0.346,0.148c-0.31,0.134-0.621,0.272-0.933,0.417l-0.468,0.223
			c-0.279,0.135-0.558,0.273-0.833,0.415l-0.5,0.261c-0.285,0.152-0.571,0.311-0.928,0.515l-0.354,0.204
			c-0.436,0.255-0.871,0.523-1.265,0.779l-0.269,0.177c-0.35,0.232-0.701,0.471-1.099,0.755l-0.371,0.272
			c-0.292,0.214-0.583,0.435-0.934,0.71l-0.425,0.341c-0.283,0.23-0.564,0.468-0.922,0.778l-0.357,0.314
			c-0.341,0.307-0.676,0.626-0.972,0.91c-0.092,0.087-0.209,0.198-0.28,0.269c-0.403,0.401-0.8,0.816-1.188,1.243
			c-0.119,0.131-0.237,0.268-0.38,0.432c-0.268,0.307-0.535,0.616-0.782,0.917c-0.136,0.166-0.271,0.335-0.442,0.552
			c-0.24,0.306-0.477,0.619-0.744,0.985c-0.132,0.18-0.262,0.359-0.36,0.5c-0.272,0.388-0.534,0.789-0.745,1.11
			c-0.108,0.165-0.217,0.329-0.297,0.459c-0.333,0.533-0.655,1.085-0.975,1.666c-0.083,0.151-0.163,0.309-0.244,0.463
			c-0.218,0.417-0.435,0.837-0.645,1.274c-0.09,0.189-0.177,0.379-0.301,0.651c-0.179,0.393-0.352,0.792-0.521,1.201
			c-0.094,0.23-0.187,0.46-0.279,0.695c-0.172,0.442-0.332,0.895-0.515,1.416c-0.066,0.188-0.13,0.374-0.179,0.525
			c-0.21,0.647-0.41,1.31-0.614,2.071l-0.092,0.376c-0.138,0.538-0.268,1.086-0.385,1.648c-0.041,0.197-0.08,0.396-0.119,0.6
			l-0.023,0.123c-0.09,0.472-0.175,0.95-0.256,1.467c-0.04,0.258-0.078,0.516-0.114,0.775c-0.068,0.501-0.128,1.014-0.178,1.502
			l-0.012,0.119c-0.022,0.205-0.043,0.409-0.063,0.637c-0.064,0.747-0.115,1.506-0.145,2.287c-0.035,0.921-0.048,1.808-0.049,2.71
			l0.006,0.768c0.007,0.622,0.021,1.229,0.045,1.854l0.034,0.797c0.036,0.682,0.085,1.346,0.136,1.987
			c0.013,0.165,0.025,0.33,0.038,0.464c0.079,0.812,0.169,1.594,0.273,2.34c0.026,0.188,0.055,0.367,0.094,0.613
			c0.091,0.579,0.183,1.146,0.293,1.727l0.137,0.691c0.116,0.56,0.239,1.102,0.389,1.707l0.117,0.47
			c0.188,0.719,0.392,1.414,0.588,2.028c0.052,0.163,0.107,0.319,0.15,0.446c0.19,0.549,0.377,1.086,0.597,1.652l0.214,0.531
			c0.2,0.484,0.407,0.955,0.646,1.474c0.068,0.147,0.137,0.295,0.213,0.453c0.602,1.236,1.286,2.428,2.051,3.573l0.245,0.354
			c0.296,0.427,0.599,0.838,0.939,1.272l0.278,0.351c0.335,0.414,0.677,0.811,1.029,1.196l0.238,0.26
			c0.44,0.466,0.899,0.92,1.419,1.391c0.114,0.103,0.228,0.202,0.254,0.224c0.394,0.346,0.793,0.674,1.145,0.947
			c0.146,0.114,0.292,0.225,0.411,0.313c0.357,0.264,0.717,0.513,1.049,0.736c0.148,0.1,0.301,0.202,0.428,0.283
			c0.113,0.071,0.227,0.139,0.294,0.179c3.515,2.079,7.413,3.281,11.272,3.324c1.385,0.068,4.908,0.088,17.519,0.115
			c-2.782,33.431-15.897,74.698-26.492,108.034C27.188,217.893,22.466,232.749,19.942,244.026z"/>
		<path style="fill:#B7B7B7;" d="M18.517,242.6L18.517,242.6c-4.882,21.82-7.187,56.368,0.983,87.891
			c1.604,6.186,4.023,11.752,7.055,16.589c0.072,0.114,0.144,0.228,0.24,0.372c0.06,0.089,0.114,0.169,0.115,0.169
			c0,0,0-0.001-0.002-0.003c0.393,0.599,0.792,1.183,1.184,1.726c0.15,0.209,0.303,0.413,0.452,0.611l0.086,0.115
			c0.319,0.427,0.64,0.845,0.967,1.253c0.197,0.245,0.394,0.487,0.598,0.732c0.328,0.392,0.658,0.773,0.988,1.142l0.099,0.112
			c0.163,0.184,0.327,0.367,0.479,0.53c0.412,0.445,0.831,0.87,1.22,1.265c0.122,0.124,0.244,0.251,0.377,0.381
			c0.528,0.516,1.06,1.007,1.602,1.488c0.171,0.152,0.344,0.297,0.521,0.447l0.057,0.048c0.357,0.307,0.716,0.608,1.08,0.9
			c0.227,0.182,0.454,0.358,0.663,0.52c0.342,0.265,0.684,0.52,1.083,0.811c0.201,0.146,0.403,0.291,0.616,0.44
			c0.374,0.262,0.747,0.511,1.119,0.755l1.303-1.986l-1.224,2.038c0.161,0.107,0.322,0.214,0.465,0.304
			c0.538,0.342,1.075,0.666,1.604,0.971c0.161,0.093,0.321,0.18,0.527,0.294c0.38,0.209,0.757,0.419,1.139,0.617
			c0.222,0.115,0.44,0.224,0.63,0.319c0.329,0.164,0.656,0.325,1.001,0.488c0.219,0.103,0.436,0.203,0.642,0.296
			c0.337,0.152,0.67,0.296,0.985,0.43l0.587,0.247c0.465,0.189,0.923,0.366,1.438,0.557l0.318,0.113
			c0.396,0.143,0.787,0.277,1.21,0.417l0.511,0.161c0.294,0.093,0.585,0.181,0.922,0.28l0.518,0.147
			c0.282,0.078,0.557,0.152,0.866,0.232l0.483,0.122c0.323,0.078,0.636,0.151,0.912,0.212l0.317,0.071
			c0.397,0.086,0.777,0.16,1.174,0.234l0.34,0.061c0.252,0.046,0.499,0.087,0.778,0.131l1.356,0.193
			c0.224,0.027,0.433,0.051,0.596,0.068l0.273,0.03c0.27,0.026,0.521,0.049,0.77,0.068l1.374,0.076c0.003,0,0.122,0.004,0.125,0.004
			l0.185,0.003c0.016,0,0.097,0.001,0.112,0.001h0.176c3.255,0.208,7.593,0.313,12.896,0.313c0.012,0,0.024,0,0.036,0
			c26.454,0,71.87-2.529,96.304-3.889c6.62-0.369,12.872-0.717,13.826-0.728c10.027-0.084,16.874-6.072,19.69-11.176
			c0.178-0.322,0.341-0.654,0.489-0.991c0.336-0.772,0.645-1.547,1.004-2.52l0.116-0.318c6.244-17.431-1.656-30.257-11.129-36.448
			c-4.569-2.992-9.051-3.645-10.316-3.773c-0.449-0.045-0.885-0.066-1.322-0.06l-10.695,0.108c-0.428,0.004-0.861,0.033-1.289,0.083
			c-1.479,0.177-2.959,0.361-4.46,0.547c-1.513,0.189-3.026,0.376-4.54,0.557c-8.234-40.041,13.087-102.733,28.732-148.727
			c9.273-27.264,13.997-54.321,13.662-78.248c-0.296-21.134-4.53-39.142-11.921-50.706c-6.679-10.45-14.374-13.311-19.653-13.87
			c-0.414-0.044-0.835-0.066-1.252-0.066h-0.534c-0.291,0-0.58,0.011-0.867,0.032c-6.817,0.499-13.393,1.59-18.36,2.486
			c-1.4,0.253-2.801,0.511-4.258,0.78c-4.146,0.766-8.064,1.488-12.016,2.074c-4.696,0.696-9.826,1.043-15.686,1.06
			c-8.669,0.033-17.139-0.654-24.418-1.302l-1.418-0.126c-7.711-0.685-15.686-1.392-23.411-2.33
			c-1.377-0.166-2.753-0.329-4.136-0.492c-4.271-0.505-8.688-1.028-12.938-1.653c-5.179-0.76-8.633-0.705-11.511,0.191
			c-0.223,0.049-0.445,0.099-0.667,0.152l-0.432,0.108c-0.25,0.063-0.5,0.128-0.791,0.208l-0.479,0.138
			c-0.251,0.074-0.503,0.15-0.717,0.219l-0.482,0.155c-0.287,0.096-0.577,0.197-0.887,0.31l-0.379,0.138
			c-0.4,0.151-0.804,0.312-1.222,0.485l-0.345,0.149c-0.31,0.134-0.621,0.272-0.933,0.417l-0.468,0.223
			c-0.279,0.134-0.558,0.273-0.833,0.415l-0.5,0.26c-0.285,0.153-0.57,0.311-0.928,0.515L32.721,23
			c-0.437,0.256-0.871,0.522-1.265,0.779l-0.269,0.177c-0.35,0.231-0.702,0.472-1.1,0.755l-0.371,0.272
			c-0.293,0.214-0.583,0.435-0.935,0.71l-0.425,0.341c-0.284,0.23-0.564,0.468-0.922,0.778l-0.357,0.313
			c-0.341,0.307-0.676,0.627-0.972,0.909c-0.092,0.088-0.209,0.199-0.28,0.269c-0.403,0.401-0.8,0.817-1.189,1.243
			c-0.119,0.131-0.237,0.267-0.38,0.431c-0.268,0.308-0.535,0.617-0.782,0.918c-0.136,0.166-0.271,0.335-0.442,0.552
			c-0.241,0.306-0.477,0.62-0.745,0.985c-0.132,0.18-0.262,0.359-0.359,0.5c-0.272,0.388-0.535,0.79-0.745,1.11
			c-0.108,0.166-0.217,0.33-0.297,0.459c-0.333,0.534-0.655,1.086-0.974,1.667c-0.083,0.151-0.163,0.307-0.244,0.463
			c-0.218,0.417-0.435,0.837-0.645,1.274c-0.09,0.189-0.178,0.379-0.301,0.65c-0.179,0.393-0.352,0.792-0.521,1.202
			c-0.094,0.229-0.188,0.459-0.279,0.694c-0.172,0.442-0.332,0.895-0.515,1.415c-0.066,0.188-0.13,0.374-0.18,0.525
			c-0.21,0.648-0.409,1.31-0.613,2.072l-0.093,0.376c-0.137,0.538-0.267,1.086-0.384,1.648c-0.041,0.197-0.081,0.396-0.119,0.6
			l-0.023,0.122c-0.09,0.471-0.176,0.95-0.256,1.467c-0.04,0.257-0.079,0.516-0.114,0.775c-0.068,0.501-0.128,1.013-0.178,1.502
			l-0.012,0.119c-0.023,0.204-0.044,0.408-0.064,0.636c-0.063,0.747-0.115,1.506-0.144,2.287c-0.035,0.921-0.049,1.808-0.049,2.711
			l0.006,0.767c0.007,0.622,0.022,1.23,0.045,1.854l0.034,0.796c0.036,0.682,0.085,1.346,0.136,1.987
			c0.013,0.166,0.025,0.33,0.038,0.465c0.079,0.812,0.168,1.593,0.273,2.34c0.026,0.188,0.055,0.367,0.094,0.613
			c0.091,0.579,0.183,1.146,0.293,1.726l0.137,0.691c0.116,0.559,0.239,1.102,0.389,1.707l0.117,0.47
			c0.189,0.72,0.392,1.414,0.589,2.029c0.052,0.163,0.106,0.319,0.15,0.445c0.191,0.549,0.378,1.087,0.598,1.653l0.214,0.53
			c0.199,0.485,0.407,0.955,0.645,1.474c0.068,0.148,0.137,0.295,0.214,0.454c0.601,1.235,1.286,2.428,2.051,3.573l0.245,0.354
			c0.296,0.427,0.599,0.838,0.939,1.273l0.278,0.351c0.335,0.414,0.677,0.811,1.029,1.196l0.237,0.26
			c0.44,0.467,0.899,0.92,1.419,1.391c0.114,0.103,0.229,0.202,0.254,0.223c0.394,0.347,0.793,0.675,1.145,0.948
			c0.147,0.114,0.292,0.225,0.411,0.313c0.356,0.265,0.716,0.514,1.049,0.737c0.147,0.099,0.3,0.202,0.428,0.283
			c0.112,0.071,0.227,0.139,0.294,0.179c3.514,2.079,7.412,3.281,11.272,3.324c1.386,0.068,4.908,0.088,17.52,0.115
			c-2.782,33.43-15.898,74.698-26.493,108.034C25.761,216.466,21.04,231.323,18.517,242.6z"/>
		<path style="fill:#A8A8A8;" d="M17.09,241.174L17.09,241.174c-4.882,21.82-7.186,56.367,0.984,87.891
			c1.604,6.186,4.024,11.751,7.055,16.589c0.071,0.114,0.143,0.228,0.24,0.373c0.06,0.09,0.114,0.169,0.115,0.169
			c0,0-0.001-0.001-0.001-0.002c0.393,0.599,0.792,1.183,1.184,1.726c0.15,0.209,0.303,0.413,0.452,0.611l0.087,0.115
			c0.319,0.427,0.641,0.846,0.967,1.254c0.197,0.245,0.394,0.486,0.598,0.732c0.328,0.392,0.658,0.773,0.988,1.143l0.099,0.112
			c0.163,0.184,0.327,0.366,0.479,0.529c0.412,0.445,0.831,0.87,1.22,1.266c0.123,0.124,0.244,0.251,0.378,0.382
			c0.528,0.516,1.06,1.007,1.601,1.487c0.171,0.151,0.344,0.298,0.521,0.447l0.057,0.047c0.357,0.306,0.715,0.608,1.08,0.9
			c0.227,0.183,0.455,0.359,0.663,0.521c0.342,0.265,0.684,0.521,1.083,0.811c0.201,0.146,0.403,0.292,0.615,0.441
			c0.374,0.261,0.748,0.511,1.12,0.755l1.303-1.985l-1.224,2.038c0.161,0.107,0.322,0.213,0.465,0.304
			c0.538,0.341,1.075,0.666,1.604,0.971c0.161,0.093,0.321,0.181,0.527,0.294c0.381,0.21,0.758,0.419,1.139,0.617
			c0.222,0.116,0.44,0.225,0.63,0.32c0.329,0.164,0.656,0.325,1.001,0.487c0.219,0.103,0.436,0.204,0.642,0.297
			c0.337,0.152,0.67,0.296,0.985,0.429l0.586,0.247c0.465,0.189,0.923,0.366,1.438,0.556l0.318,0.114
			c0.396,0.142,0.787,0.277,1.21,0.417l0.511,0.16c0.294,0.093,0.585,0.182,0.922,0.281l0.518,0.146
			c0.282,0.078,0.557,0.152,0.867,0.232l0.483,0.122c0.322,0.078,0.636,0.15,0.912,0.211l0.317,0.072
			c0.398,0.086,0.777,0.16,1.174,0.234l0.34,0.061c0.252,0.045,0.499,0.087,0.778,0.131l1.356,0.192
			c0.225,0.027,0.433,0.051,0.597,0.068l0.272,0.029c0.271,0.027,0.521,0.049,0.77,0.068l1.374,0.077
			c0.003,0,0.122,0.003,0.125,0.003l0.186,0.004c0.016,0.001,0.096,0.002,0.112,0.002h0.176c3.255,0.207,7.593,0.313,12.896,0.313
			c0.012,0,0.024,0,0.036,0c26.453,0,71.87-2.528,96.304-3.888c6.62-0.37,12.873-0.718,13.825-0.728
			c10.027-0.085,16.874-6.072,19.69-11.176c0.178-0.322,0.342-0.654,0.488-0.992c0.337-0.772,0.645-1.547,1.005-2.519l0.116-0.318
			c6.244-17.431-1.656-30.258-11.129-36.447c-4.569-2.992-9.051-3.645-10.316-3.773c-0.45-0.045-0.886-0.066-1.323-0.061
			l-10.695,0.109c-0.428,0.004-0.862,0.033-1.289,0.083c-1.48,0.177-2.958,0.361-4.46,0.547c-1.513,0.188-3.026,0.375-4.54,0.557
			c-8.234-40.041,13.087-102.733,28.731-148.727c9.274-27.264,13.998-54.321,13.662-78.249c-0.296-21.134-4.53-39.142-11.921-50.707
			c-6.679-10.45-14.374-13.31-19.653-13.87c-0.414-0.045-0.835-0.067-1.252-0.067h-0.534c-0.29,0-0.58,0.011-0.867,0.033
			c-6.817,0.498-13.393,1.59-18.361,2.485c-1.4,0.253-2.8,0.511-4.257,0.78c-4.147,0.765-8.064,1.488-12.016,2.075
			c-4.695,0.696-9.825,1.043-15.685,1.059c-8.67,0.033-17.139-0.653-24.419-1.301l-1.418-0.126
			c-7.711-0.685-15.686-1.392-23.411-2.33c-1.377-0.167-2.754-0.329-4.136-0.493c-4.271-0.505-8.688-1.027-12.937-1.652
			c-5.179-0.76-8.634-0.705-11.512,0.191c-0.223,0.048-0.445,0.099-0.667,0.152l-0.431,0.108c-0.25,0.063-0.5,0.128-0.791,0.208
			l-0.479,0.138c-0.251,0.073-0.503,0.15-0.717,0.219l-0.482,0.155c-0.287,0.096-0.577,0.198-0.887,0.31l-0.379,0.137
			c-0.4,0.151-0.805,0.311-1.222,0.485L35.31,19.54c-0.31,0.134-0.621,0.272-0.933,0.417l-0.468,0.223
			c-0.279,0.135-0.558,0.273-0.833,0.415l-0.5,0.26c-0.285,0.152-0.57,0.312-0.928,0.515l-0.354,0.204
			c-0.436,0.256-0.871,0.522-1.265,0.778l-0.269,0.178c-0.351,0.231-0.701,0.472-1.1,0.754l-0.371,0.272
			c-0.293,0.214-0.583,0.435-0.935,0.71l-0.425,0.34c-0.284,0.231-0.564,0.468-0.922,0.778L25.651,25.7
			c-0.341,0.306-0.677,0.625-0.973,0.909c-0.091,0.088-0.208,0.199-0.279,0.269c-0.403,0.4-0.8,0.817-1.189,1.243
			c-0.119,0.132-0.237,0.267-0.38,0.432c-0.268,0.307-0.536,0.616-0.783,0.918c-0.136,0.166-0.271,0.334-0.442,0.552
			c-0.241,0.305-0.477,0.619-0.745,0.984c-0.132,0.181-0.262,0.359-0.359,0.5c-0.272,0.388-0.535,0.789-0.745,1.109
			c-0.108,0.167-0.217,0.331-0.297,0.459c-0.333,0.534-0.655,1.085-0.974,1.666c-0.083,0.152-0.164,0.308-0.245,0.463
			c-0.217,0.417-0.434,0.838-0.644,1.275c-0.091,0.188-0.178,0.379-0.302,0.65c-0.179,0.393-0.352,0.793-0.521,1.202
			c-0.094,0.229-0.188,0.459-0.279,0.694c-0.171,0.442-0.332,0.897-0.514,1.416c-0.066,0.188-0.131,0.374-0.18,0.525
			c-0.21,0.648-0.409,1.31-0.614,2.072l-0.092,0.377c-0.137,0.538-0.267,1.086-0.384,1.647c-0.041,0.196-0.081,0.397-0.119,0.6
			l-0.023,0.123c-0.09,0.471-0.175,0.95-0.256,1.468c-0.04,0.257-0.078,0.515-0.113,0.775c-0.069,0.501-0.128,1.013-0.178,1.501
			l-0.012,0.12c-0.022,0.204-0.043,0.408-0.064,0.636c-0.064,0.746-0.115,1.507-0.144,2.287c-0.035,0.92-0.049,1.808-0.05,2.711
			l0.006,0.767c0.007,0.622,0.021,1.23,0.045,1.854l0.034,0.797c0.035,0.683,0.085,1.346,0.135,1.987
			c0.013,0.165,0.025,0.33,0.038,0.464c0.079,0.812,0.169,1.594,0.274,2.34c0.025,0.187,0.055,0.367,0.094,0.613
			c0.091,0.579,0.183,1.146,0.293,1.726l0.136,0.691c0.117,0.56,0.239,1.102,0.389,1.707l0.117,0.47
			c0.188,0.72,0.393,1.414,0.589,2.029c0.052,0.163,0.106,0.319,0.15,0.445c0.19,0.549,0.377,1.087,0.597,1.653l0.214,0.531
			c0.199,0.485,0.407,0.955,0.645,1.473c0.068,0.148,0.136,0.295,0.213,0.455c0.602,1.235,1.286,2.427,2.051,3.573l0.245,0.354
			c0.297,0.427,0.599,0.838,0.939,1.273l0.278,0.351c0.335,0.414,0.677,0.811,1.029,1.196l0.237,0.26
			c0.439,0.466,0.899,0.919,1.42,1.391c0.113,0.103,0.228,0.201,0.254,0.223c0.395,0.347,0.793,0.674,1.145,0.948
			c0.146,0.113,0.292,0.226,0.411,0.313c0.355,0.265,0.717,0.514,1.049,0.738c0.147,0.099,0.301,0.202,0.428,0.282
			c0.113,0.071,0.227,0.139,0.295,0.179c3.514,2.079,7.412,3.282,11.271,3.324c1.386,0.069,4.908,0.089,17.52,0.115
			c-2.782,33.431-15.897,74.699-26.493,108.035C24.335,215.04,19.613,229.896,17.09,241.174z"/>
		<path style="fill:#9A9A9A;" d="M15.664,239.748L15.664,239.748c-4.882,21.82-7.186,56.368,0.984,87.891
			c1.604,6.186,4.023,11.752,7.055,16.589c0.071,0.113,0.143,0.228,0.24,0.372c0.06,0.09,0.113,0.17,0.115,0.17
			c0,0,0-0.001-0.001-0.003c0.393,0.599,0.792,1.183,1.184,1.727c0.15,0.209,0.302,0.413,0.452,0.611l0.086,0.115
			c0.319,0.427,0.64,0.846,0.967,1.253c0.196,0.246,0.394,0.487,0.598,0.732c0.328,0.392,0.658,0.772,0.988,1.143l0.099,0.112
			c0.163,0.184,0.327,0.367,0.478,0.53c0.412,0.445,0.831,0.87,1.22,1.266c0.122,0.124,0.244,0.25,0.377,0.381
			c0.528,0.516,1.06,1.007,1.602,1.488c0.171,0.152,0.344,0.298,0.521,0.448l0.057,0.047c0.358,0.306,0.716,0.607,1.08,0.9
			c0.228,0.182,0.455,0.359,0.663,0.52c0.342,0.265,0.685,0.52,1.084,0.811c0.201,0.146,0.402,0.292,0.615,0.441
			c0.374,0.261,0.748,0.511,1.119,0.755l1.303-1.985l-1.224,2.037c0.161,0.107,0.322,0.214,0.465,0.304
			c0.538,0.341,1.075,0.667,1.604,0.971c0.161,0.093,0.321,0.18,0.527,0.294c0.38,0.21,0.758,0.419,1.139,0.617
			c0.223,0.115,0.44,0.225,0.631,0.32c0.329,0.164,0.656,0.324,1.001,0.487c0.219,0.103,0.436,0.204,0.642,0.297
			c0.337,0.152,0.67,0.296,0.985,0.429l0.587,0.248c0.465,0.189,0.922,0.367,1.438,0.557l0.318,0.114
			c0.396,0.142,0.787,0.277,1.209,0.417l0.511,0.161c0.294,0.093,0.585,0.182,0.922,0.28l0.518,0.147
			c0.282,0.078,0.557,0.152,0.867,0.231l0.483,0.122c0.322,0.079,0.635,0.151,0.911,0.212l0.317,0.072
			c0.397,0.085,0.777,0.16,1.174,0.234l0.34,0.06c0.252,0.045,0.498,0.088,0.778,0.131l1.357,0.193
			c0.225,0.026,0.433,0.051,0.597,0.068l0.272,0.03c0.27,0.027,0.521,0.049,0.77,0.068l1.374,0.077c0.003,0,0.122,0.003,0.125,0.003
			l0.185,0.004c0.016,0,0.097,0.001,0.112,0.001l0.176,0.001c3.255,0.207,7.593,0.313,12.897,0.313c0.012,0,0.024,0,0.036,0
			c26.454,0,71.87-2.529,96.304-3.889c6.62-0.369,12.873-0.717,13.826-0.728c10.027-0.084,16.874-6.071,19.691-11.175
			c0.178-0.323,0.341-0.655,0.488-0.992c0.336-0.772,0.645-1.547,1.004-2.519l0.116-0.318c6.244-17.432-1.655-30.258-11.129-36.448
			c-4.57-2.991-9.051-3.645-10.316-3.773c-0.45-0.045-0.886-0.066-1.323-0.06l-10.694,0.108c-0.429,0.005-0.862,0.034-1.289,0.084
			c-1.48,0.178-2.959,0.361-4.461,0.548c-1.513,0.188-3.026,0.376-4.539,0.556c-8.234-40.04,13.087-102.732,28.731-148.727
			c9.273-27.264,13.997-54.321,13.662-78.249c-0.297-21.133-4.53-39.141-11.922-50.707c-6.679-10.45-14.374-13.311-19.653-13.87
			c-0.415-0.044-0.835-0.066-1.252-0.066h-0.534c-0.29,0-0.58,0.01-0.867,0.032c-6.816,0.499-13.393,1.59-18.36,2.485
			c-1.4,0.253-2.8,0.512-4.257,0.78c-4.147,0.766-8.064,1.488-12.016,2.075c-4.696,0.696-9.826,1.043-15.685,1.059
			c-8.67,0.033-17.139-0.653-24.419-1.302l-1.417-0.126c-7.712-0.685-15.686-1.392-23.412-2.329
			c-1.376-0.167-2.753-0.33-4.136-0.493c-4.271-0.505-8.688-1.028-12.938-1.653c-5.178-0.76-8.633-0.705-11.511,0.191
			c-0.223,0.049-0.445,0.099-0.667,0.152l-0.431,0.107c-0.25,0.063-0.5,0.128-0.791,0.208l-0.479,0.137
			c-0.251,0.074-0.502,0.15-0.716,0.219l-0.482,0.156c-0.287,0.095-0.577,0.197-0.888,0.309l-0.379,0.138
			c-0.4,0.151-0.804,0.311-1.222,0.485l-0.346,0.149c-0.31,0.134-0.621,0.272-0.933,0.417l-0.468,0.223
			c-0.279,0.134-0.558,0.272-0.832,0.415l-0.5,0.261c-0.285,0.152-0.571,0.311-0.928,0.515l-0.354,0.203
			c-0.436,0.256-0.871,0.523-1.265,0.779l-0.269,0.178c-0.35,0.23-0.701,0.471-1.099,0.754l-0.371,0.272
			c-0.293,0.214-0.583,0.434-0.935,0.71l-0.425,0.341c-0.283,0.23-0.565,0.468-0.922,0.778l-0.357,0.313
			c-0.341,0.307-0.676,0.625-0.972,0.909c-0.091,0.088-0.209,0.199-0.28,0.27c-0.403,0.4-0.8,0.816-1.189,1.243
			c-0.119,0.131-0.237,0.267-0.38,0.431c-0.268,0.307-0.535,0.617-0.782,0.918c-0.136,0.166-0.271,0.335-0.442,0.552
			c-0.241,0.306-0.477,0.619-0.744,0.984c-0.132,0.18-0.262,0.359-0.36,0.5c-0.272,0.388-0.535,0.789-0.745,1.11
			c-0.108,0.166-0.217,0.33-0.297,0.459c-0.333,0.534-0.656,1.085-0.975,1.666c-0.083,0.151-0.163,0.308-0.244,0.463
			c-0.218,0.417-0.435,0.837-0.644,1.274c-0.09,0.188-0.178,0.379-0.301,0.65c-0.179,0.393-0.352,0.792-0.521,1.202
			c-0.094,0.229-0.188,0.459-0.279,0.694c-0.172,0.442-0.332,0.895-0.515,1.416c-0.065,0.188-0.13,0.374-0.179,0.525
			c-0.209,0.647-0.41,1.309-0.614,2.072l-0.092,0.376c-0.137,0.538-0.267,1.086-0.384,1.648c-0.041,0.196-0.081,0.396-0.119,0.6
			l-0.023,0.123c-0.09,0.471-0.176,0.95-0.256,1.467c-0.04,0.258-0.078,0.516-0.114,0.775c-0.068,0.502-0.128,1.014-0.177,1.502
			l-0.013,0.119c-0.022,0.205-0.043,0.409-0.063,0.637c-0.064,0.746-0.115,1.506-0.144,2.287c-0.036,0.92-0.049,1.808-0.05,2.71
			l0.006,0.767c0.007,0.622,0.022,1.23,0.045,1.854l0.034,0.797c0.036,0.683,0.085,1.346,0.136,1.987
			c0.013,0.166,0.025,0.331,0.038,0.464c0.079,0.812,0.169,1.594,0.274,2.34c0.026,0.187,0.055,0.367,0.094,0.613
			c0.091,0.579,0.183,1.146,0.293,1.727l0.136,0.691c0.116,0.559,0.239,1.101,0.389,1.706l0.117,0.471
			c0.188,0.719,0.392,1.414,0.588,2.029c0.052,0.162,0.107,0.318,0.15,0.445c0.191,0.549,0.377,1.086,0.597,1.653l0.214,0.53
			c0.2,0.485,0.407,0.955,0.646,1.474c0.068,0.148,0.136,0.295,0.213,0.454c0.602,1.235,1.286,2.428,2.051,3.573l0.245,0.354
			c0.297,0.427,0.599,0.838,0.939,1.272l0.278,0.352c0.336,0.413,0.677,0.81,1.029,1.195l0.238,0.26
			c0.439,0.466,0.899,0.92,1.419,1.391c0.114,0.103,0.229,0.202,0.254,0.223c0.395,0.347,0.793,0.675,1.146,0.948
			c0.146,0.113,0.292,0.225,0.411,0.313c0.355,0.265,0.716,0.514,1.049,0.738c0.147,0.099,0.3,0.202,0.428,0.283
			c0.112,0.071,0.227,0.139,0.294,0.179c3.515,2.079,7.413,3.281,11.273,3.324c1.385,0.069,4.908,0.088,17.519,0.115
			c-2.782,33.431-15.897,74.699-26.493,108.035C22.909,213.614,18.188,228.47,15.664,239.748z"/>
		<path style="fill:#8B8B8B;" d="M14.238,238.321L14.238,238.321c-4.882,21.82-7.188,56.368,0.983,87.891
			c1.604,6.188,4.024,11.753,7.055,16.589c0.072,0.114,0.144,0.228,0.24,0.373c0.059,0.09,0.113,0.169,0.115,0.169
			c0,0-0.001-0.001-0.002-0.003c0.393,0.6,0.792,1.183,1.184,1.727c0.15,0.21,0.302,0.414,0.452,0.611l0.086,0.115
			c0.319,0.427,0.64,0.845,0.967,1.252c0.196,0.246,0.394,0.487,0.599,0.732c0.328,0.392,0.658,0.773,0.987,1.143l0.1,0.112
			c0.163,0.184,0.326,0.366,0.478,0.53c0.412,0.445,0.83,0.869,1.22,1.266c0.122,0.124,0.243,0.249,0.377,0.381
			c0.528,0.516,1.061,1.007,1.602,1.487c0.172,0.152,0.343,0.298,0.521,0.448l0.057,0.047c0.358,0.307,0.716,0.607,1.08,0.9
			c0.227,0.182,0.455,0.359,0.663,0.52c0.342,0.264,0.685,0.521,1.083,0.812c0.201,0.145,0.403,0.291,0.616,0.44
			c0.375,0.261,0.748,0.511,1.119,0.755l1.304-1.986l-1.224,2.038c0.16,0.107,0.321,0.213,0.464,0.304
			c0.539,0.341,1.076,0.665,1.604,0.97c0.16,0.093,0.321,0.181,0.527,0.294c0.381,0.21,0.757,0.42,1.139,0.618
			c0.222,0.116,0.441,0.225,0.63,0.32c0.329,0.164,0.656,0.324,1.001,0.488c0.219,0.102,0.436,0.204,0.642,0.297
			c0.338,0.152,0.67,0.296,0.985,0.428l0.587,0.247c0.465,0.189,0.923,0.367,1.439,0.557l0.317,0.114
			c0.396,0.143,0.787,0.277,1.21,0.417l0.511,0.161c0.293,0.093,0.584,0.181,0.922,0.28l0.517,0.148
			c0.282,0.078,0.557,0.152,0.867,0.23l0.483,0.123c0.323,0.079,0.636,0.15,0.912,0.212l0.317,0.071
			c0.397,0.086,0.776,0.16,1.173,0.234l0.341,0.06c0.251,0.045,0.498,0.087,0.777,0.132l1.356,0.192
			c0.224,0.027,0.433,0.052,0.596,0.068l0.273,0.03c0.27,0.026,0.521,0.049,0.77,0.068l1.374,0.076c0.003,0,0.122,0.004,0.125,0.004
			l0.185,0.004c0.016,0,0.098,0.001,0.112,0.001l0.176,0.001c3.254,0.207,7.593,0.313,12.897,0.313c0.012,0,0.024,0,0.036,0
			c26.454,0,71.87-2.529,96.304-3.888c6.619-0.369,12.872-0.718,13.825-0.729c10.028-0.084,16.874-6.071,19.69-11.174
			c0.178-0.323,0.342-0.655,0.489-0.992c0.335-0.772,0.645-1.547,1.003-2.519l0.116-0.318c6.245-17.432-1.655-30.258-11.129-36.449
			c-4.569-2.991-9.051-3.644-10.316-3.773c-0.449-0.046-0.885-0.066-1.322-0.06l-10.694,0.108c-0.429,0.005-0.862,0.034-1.289,0.084
			c-1.48,0.177-2.959,0.36-4.46,0.548c-1.514,0.188-3.026,0.376-4.54,0.556c-8.235-40.041,13.086-102.732,28.731-148.727
			c9.272-27.264,13.997-54.322,13.662-78.249c-0.297-21.133-4.53-39.141-11.922-50.706c-6.678-10.45-14.373-13.311-19.653-13.871
			c-0.415-0.044-0.835-0.065-1.252-0.065h-0.534c-0.29,0-0.58,0.01-0.867,0.031c-6.816,0.499-13.392,1.59-18.36,2.485
			c-1.401,0.253-2.801,0.512-4.258,0.781c-4.148,0.766-8.064,1.488-12.016,2.074c-4.696,0.696-9.826,1.043-15.687,1.059
			c-8.669,0.034-17.139-0.653-24.418-1.301l-1.418-0.125c-7.711-0.685-15.686-1.393-23.412-2.33
			c-1.376-0.166-2.753-0.33-4.136-0.493c-4.271-0.504-8.688-1.027-12.938-1.652c-5.178-0.761-8.632-0.706-11.511,0.191
			c-0.223,0.048-0.444,0.099-0.666,0.152l-0.432,0.106c-0.25,0.064-0.5,0.129-0.791,0.209l-0.479,0.137
			c-0.251,0.074-0.502,0.15-0.716,0.219l-0.482,0.155c-0.287,0.096-0.576,0.197-0.887,0.31l-0.379,0.138
			c-0.401,0.15-0.804,0.311-1.222,0.484l-0.346,0.149c-0.31,0.134-0.621,0.272-0.933,0.417l-0.468,0.223
			c-0.279,0.134-0.558,0.273-0.832,0.415l-0.5,0.261c-0.285,0.153-0.57,0.312-0.928,0.515l-0.354,0.203
			c-0.436,0.256-0.871,0.523-1.265,0.779l-0.269,0.178c-0.35,0.231-0.701,0.471-1.1,0.754l-0.37,0.272
			c-0.293,0.214-0.583,0.434-0.935,0.71l-0.425,0.342c-0.284,0.23-0.565,0.468-0.922,0.777l-0.357,0.314
			c-0.341,0.307-0.676,0.626-0.973,0.91c-0.091,0.087-0.208,0.199-0.28,0.269c-0.403,0.401-0.8,0.816-1.188,1.243
			c-0.119,0.131-0.236,0.267-0.38,0.431c-0.268,0.308-0.535,0.616-0.782,0.918c-0.136,0.166-0.271,0.335-0.442,0.552
			c-0.24,0.307-0.477,0.62-0.744,0.985c-0.132,0.18-0.261,0.359-0.36,0.5c-0.273,0.387-0.534,0.789-0.744,1.11
			c-0.108,0.166-0.217,0.33-0.298,0.459c-0.333,0.534-0.655,1.086-0.974,1.667c-0.083,0.151-0.163,0.308-0.244,0.463
			c-0.218,0.416-0.436,0.837-0.645,1.274c-0.09,0.189-0.178,0.379-0.3,0.651c-0.179,0.393-0.352,0.792-0.52,1.201
			c-0.095,0.229-0.188,0.459-0.279,0.694c-0.172,0.441-0.332,0.896-0.515,1.416c-0.066,0.188-0.13,0.373-0.179,0.525
			c-0.21,0.648-0.41,1.31-0.614,2.072l-0.092,0.375c-0.137,0.538-0.267,1.086-0.385,1.648c-0.041,0.197-0.079,0.396-0.119,0.6
			l-0.023,0.123c-0.09,0.471-0.176,0.95-0.256,1.467c-0.04,0.258-0.078,0.516-0.114,0.776c-0.068,0.501-0.128,1.013-0.177,1.502
			l-0.013,0.119c-0.023,0.205-0.044,0.409-0.063,0.636c-0.065,0.747-0.115,1.507-0.145,2.287c-0.035,0.921-0.048,1.808-0.049,2.711
			l0.005,0.767c0.007,0.622,0.022,1.23,0.045,1.854l0.034,0.797c0.036,0.682,0.086,1.346,0.137,1.987
			c0.013,0.165,0.024,0.331,0.038,0.464c0.079,0.812,0.169,1.594,0.273,2.34c0.026,0.186,0.055,0.367,0.094,0.612
			c0.091,0.579,0.184,1.146,0.294,1.727l0.137,0.692c0.116,0.559,0.239,1.102,0.389,1.707l0.116,0.471
			c0.189,0.719,0.392,1.413,0.589,2.028c0.052,0.163,0.106,0.318,0.15,0.445c0.19,0.55,0.377,1.087,0.597,1.652l0.214,0.531
			c0.199,0.485,0.406,0.955,0.646,1.474c0.068,0.147,0.137,0.295,0.213,0.454c0.603,1.235,1.287,2.428,2.052,3.573l0.245,0.354
			c0.296,0.427,0.599,0.839,0.939,1.273l0.279,0.351c0.335,0.413,0.676,0.811,1.029,1.196l0.237,0.259
			c0.44,0.467,0.899,0.92,1.419,1.391c0.114,0.104,0.229,0.202,0.254,0.224c0.395,0.346,0.794,0.675,1.146,0.947
			c0.146,0.114,0.292,0.226,0.41,0.313c0.356,0.265,0.717,0.513,1.049,0.737c0.148,0.099,0.301,0.202,0.428,0.282
			c0.113,0.072,0.227,0.14,0.294,0.179c3.514,2.079,7.413,3.282,11.272,3.324c1.386,0.069,4.909,0.088,17.52,0.115
			c-2.781,33.431-15.897,74.699-26.492,108.035C21.482,212.189,16.762,227.044,14.238,238.321z"/>
		<path style="fill:#7D7D7D;" d="M12.811,236.895L12.811,236.895c-4.881,21.82-7.186,56.368,0.984,87.891
			c1.603,6.187,4.023,11.752,7.055,16.589c0.071,0.114,0.144,0.228,0.24,0.372c0.06,0.091,0.114,0.17,0.115,0.17
			c0,0,0-0.001-0.001-0.003c0.393,0.6,0.792,1.183,1.184,1.727c0.15,0.209,0.303,0.413,0.452,0.611l0.086,0.116
			c0.319,0.427,0.64,0.845,0.967,1.252c0.197,0.245,0.395,0.487,0.599,0.732c0.327,0.392,0.657,0.772,0.987,1.143l0.099,0.111
			c0.163,0.185,0.327,0.367,0.479,0.53c0.412,0.445,0.831,0.87,1.22,1.266c0.122,0.124,0.244,0.25,0.378,0.381
			c0.528,0.516,1.059,1.008,1.601,1.488c0.172,0.151,0.344,0.298,0.521,0.447l0.057,0.048c0.357,0.306,0.715,0.607,1.08,0.899
			c0.228,0.183,0.455,0.359,0.663,0.521c0.342,0.264,0.684,0.52,1.083,0.811c0.201,0.146,0.403,0.291,0.616,0.441
			c0.374,0.261,0.747,0.511,1.119,0.755l1.303-1.986l-1.224,2.039c0.16,0.107,0.321,0.213,0.465,0.304
			c0.538,0.341,1.075,0.666,1.604,0.971c0.16,0.093,0.32,0.18,0.527,0.294c0.38,0.21,0.757,0.419,1.139,0.617
			c0.222,0.116,0.44,0.225,0.63,0.32c0.329,0.165,0.656,0.325,1.001,0.488c0.219,0.102,0.436,0.204,0.642,0.297
			c0.337,0.152,0.67,0.296,0.985,0.429l0.587,0.247c0.464,0.189,0.922,0.367,1.438,0.557l0.317,0.114
			c0.396,0.142,0.787,0.277,1.21,0.416l0.511,0.161c0.294,0.093,0.585,0.182,0.922,0.281l0.518,0.147
			c0.282,0.078,0.558,0.152,0.867,0.231l0.483,0.122c0.322,0.079,0.636,0.151,0.912,0.212l0.317,0.072
			c0.397,0.085,0.777,0.16,1.174,0.234l0.34,0.06c0.251,0.045,0.498,0.088,0.777,0.132l1.356,0.192
			c0.225,0.027,0.434,0.052,0.597,0.068l0.273,0.03c0.27,0.027,0.52,0.049,0.77,0.068l1.374,0.077c0.003,0,0.122,0.003,0.125,0.003
			l0.185,0.004c0.016,0,0.097,0.001,0.112,0.001l0.176,0.001c3.255,0.207,7.593,0.313,12.896,0.313c0.012,0,0.024,0,0.036,0
			c26.454,0,71.87-2.528,96.304-3.889c6.62-0.369,12.872-0.717,13.825-0.729c10.027-0.084,16.874-6.071,19.69-11.175
			c0.178-0.323,0.341-0.654,0.488-0.992c0.336-0.772,0.646-1.547,1.004-2.519l0.116-0.318c6.244-17.432-1.655-30.258-11.129-36.449
			c-4.569-2.991-9.051-3.644-10.316-3.772c-0.449-0.046-0.886-0.067-1.322-0.061l-10.694,0.108
			c-0.429,0.005-0.862,0.033-1.289,0.084c-1.48,0.177-2.959,0.361-4.461,0.547c-1.513,0.188-3.026,0.377-4.539,0.557
			c-8.235-40.041,13.087-102.732,28.731-148.727c9.273-27.263,13.998-54.321,13.662-78.248c-0.296-21.134-4.53-39.142-11.921-50.707
			c-6.679-10.45-14.374-13.311-19.653-13.87c-0.415-0.044-0.835-0.066-1.252-0.066h-0.534c-0.291,0-0.58,0.011-0.867,0.032
			c-6.816,0.499-13.392,1.59-18.36,2.485c-1.4,0.253-2.8,0.512-4.257,0.78c-4.147,0.767-8.064,1.488-12.016,2.075
			c-4.695,0.696-9.825,1.043-15.686,1.059c-8.669,0.033-17.139-0.653-24.419-1.302l-1.418-0.125
			c-7.711-0.684-15.686-1.392-23.411-2.33c-1.376-0.167-2.753-0.33-4.136-0.493c-4.271-0.505-8.687-1.028-12.937-1.653
			c-5.179-0.76-8.633-0.704-11.511,0.192c-0.223,0.048-0.445,0.099-0.667,0.152l-0.431,0.107c-0.25,0.063-0.5,0.128-0.791,0.209
			l-0.479,0.137c-0.251,0.074-0.503,0.15-0.717,0.219l-0.482,0.156c-0.287,0.095-0.577,0.197-0.887,0.309l-0.379,0.138
			c-0.4,0.15-0.805,0.311-1.222,0.484l-0.346,0.149c-0.31,0.134-0.621,0.272-0.933,0.417l-0.468,0.223
			c-0.279,0.135-0.558,0.273-0.833,0.415l-0.5,0.261c-0.285,0.152-0.57,0.312-0.928,0.515l-0.354,0.203
			c-0.436,0.256-0.871,0.523-1.264,0.779l-0.269,0.178c-0.351,0.23-0.702,0.471-1.1,0.755l-0.371,0.271
			c-0.292,0.214-0.583,0.435-0.935,0.71l-0.425,0.341c-0.284,0.231-0.564,0.468-0.922,0.778l-0.357,0.313
			c-0.341,0.307-0.677,0.626-0.973,0.91c-0.091,0.087-0.208,0.199-0.279,0.269c-0.403,0.4-0.8,0.817-1.188,1.244
			c-0.119,0.131-0.237,0.267-0.38,0.431c-0.268,0.307-0.536,0.616-0.782,0.918c-0.136,0.166-0.271,0.334-0.442,0.552
			c-0.241,0.306-0.477,0.619-0.745,0.985c-0.132,0.18-0.262,0.359-0.359,0.5c-0.273,0.388-0.535,0.789-0.745,1.11
			c-0.108,0.165-0.217,0.33-0.297,0.459c-0.333,0.534-0.655,1.086-0.974,1.666c-0.083,0.152-0.163,0.308-0.245,0.463
			c-0.217,0.417-0.435,0.837-0.644,1.274c-0.09,0.189-0.178,0.379-0.301,0.651c-0.179,0.393-0.351,0.792-0.521,1.201
			c-0.094,0.229-0.188,0.46-0.279,0.694c-0.171,0.442-0.332,0.896-0.514,1.417c-0.066,0.187-0.13,0.372-0.18,0.525
			c-0.21,0.647-0.41,1.309-0.614,2.071l-0.092,0.376c-0.138,0.538-0.267,1.087-0.385,1.648c-0.041,0.196-0.08,0.396-0.119,0.6
			l-0.023,0.123c-0.09,0.471-0.175,0.95-0.256,1.467c-0.04,0.257-0.079,0.515-0.114,0.775c-0.069,0.501-0.128,1.013-0.178,1.502
			L9.731,45.37c-0.022,0.205-0.044,0.409-0.063,0.637c-0.064,0.746-0.115,1.507-0.144,2.287c-0.035,0.92-0.049,1.808-0.05,2.71
			l0.006,0.767c0.007,0.622,0.021,1.23,0.045,1.854l0.034,0.797c0.036,0.683,0.085,1.346,0.136,1.987
			c0.013,0.165,0.025,0.33,0.038,0.464c0.079,0.812,0.169,1.594,0.273,2.34c0.026,0.187,0.055,0.368,0.094,0.613
			c0.091,0.579,0.183,1.146,0.293,1.727l0.136,0.691c0.117,0.56,0.24,1.102,0.389,1.707l0.117,0.47
			c0.189,0.72,0.392,1.414,0.589,2.029c0.052,0.162,0.106,0.318,0.15,0.445c0.191,0.549,0.378,1.086,0.598,1.652l0.214,0.531
			c0.2,0.485,0.407,0.955,0.646,1.474c0.068,0.148,0.136,0.295,0.213,0.454c0.602,1.235,1.286,2.428,2.051,3.573l0.245,0.354
			c0.296,0.427,0.599,0.838,0.939,1.272l0.278,0.351c0.335,0.414,0.677,0.811,1.029,1.196l0.237,0.26
			c0.44,0.467,0.899,0.92,1.419,1.391c0.114,0.103,0.228,0.202,0.254,0.223c0.394,0.346,0.793,0.674,1.145,0.948
			c0.146,0.113,0.292,0.226,0.411,0.313c0.355,0.265,0.716,0.514,1.049,0.737c0.148,0.1,0.301,0.203,0.428,0.283
			c0.112,0.071,0.226,0.139,0.294,0.179c3.514,2.079,7.412,3.281,11.272,3.324c1.386,0.069,4.908,0.088,17.52,0.114
			c-2.782,33.432-15.898,74.699-26.493,108.035C20.057,210.762,15.335,225.618,12.811,236.895z"/>
		<path style="fill:#6E6E6E;" d="M11.385,235.47L11.385,235.47c-4.881,21.82-7.186,56.367,0.984,87.891
			c1.604,6.186,4.023,11.752,7.055,16.589c0.071,0.113,0.144,0.229,0.24,0.372c0.06,0.09,0.114,0.169,0.115,0.169
			c0,0,0,0-0.001-0.002c0.393,0.6,0.792,1.183,1.184,1.727c0.15,0.209,0.302,0.413,0.452,0.61l0.087,0.115
			c0.318,0.427,0.64,0.846,0.967,1.253c0.197,0.245,0.394,0.487,0.598,0.731c0.328,0.393,0.658,0.773,0.988,1.143l0.1,0.112
			c0.163,0.184,0.327,0.367,0.478,0.53c0.412,0.445,0.831,0.87,1.22,1.265c0.123,0.125,0.244,0.25,0.377,0.381
			c0.528,0.516,1.06,1.007,1.602,1.488c0.171,0.151,0.344,0.298,0.521,0.447l0.057,0.047c0.357,0.306,0.715,0.607,1.08,0.9
			c0.226,0.183,0.455,0.359,0.663,0.521c0.342,0.264,0.684,0.52,1.084,0.811c0.2,0.146,0.402,0.291,0.615,0.44
			c0.373,0.262,0.747,0.511,1.12,0.755l1.302-1.985l-1.224,2.039c0.161,0.107,0.322,0.213,0.465,0.303
			c0.538,0.342,1.075,0.666,1.605,0.972c0.161,0.093,0.32,0.18,0.527,0.294c0.38,0.21,0.757,0.419,1.139,0.617
			c0.223,0.116,0.44,0.224,0.631,0.319c0.328,0.165,0.656,0.325,1.001,0.487c0.219,0.104,0.436,0.205,0.642,0.298
			c0.337,0.151,0.67,0.295,0.984,0.429l0.587,0.247c0.465,0.189,0.922,0.366,1.438,0.557l0.318,0.114
			c0.395,0.142,0.786,0.278,1.21,0.417l0.51,0.161c0.294,0.093,0.585,0.181,0.922,0.281l0.518,0.147
			c0.282,0.077,0.557,0.151,0.867,0.232l0.483,0.122c0.322,0.078,0.635,0.15,0.911,0.212l0.317,0.071
			c0.397,0.085,0.778,0.161,1.175,0.235l0.339,0.06c0.252,0.045,0.498,0.087,0.778,0.131l1.357,0.193
			c0.225,0.026,0.433,0.051,0.597,0.068l0.272,0.03c0.27,0.026,0.521,0.049,0.77,0.068l1.374,0.077c0.004,0,0.123,0.002,0.125,0.002
			l0.186,0.003c0.016,0.001,0.097,0.002,0.112,0.002h0.175c3.255,0.208,7.593,0.314,12.896,0.314c0.012,0,0.024,0,0.036,0
			c26.454,0,71.87-2.529,96.303-3.889c6.621-0.369,12.874-0.717,13.826-0.729c10.027-0.084,16.873-6.072,19.69-11.175
			c0.178-0.323,0.341-0.654,0.488-0.992c0.337-0.772,0.646-1.547,1.005-2.519l0.116-0.318c6.244-17.432-1.656-30.258-11.129-36.448
			c-4.57-2.992-9.051-3.644-10.316-3.773c-0.45-0.045-0.886-0.067-1.323-0.06l-10.694,0.108c-0.429,0.005-0.862,0.032-1.29,0.083
			c-1.479,0.177-2.958,0.361-4.46,0.547c-1.513,0.188-3.026,0.376-4.54,0.557c-8.234-40.041,13.088-102.732,28.731-148.728
			c9.274-27.263,13.998-54.321,13.662-78.248c-0.296-21.134-4.53-39.142-11.921-50.708c-6.679-10.45-14.374-13.31-19.653-13.87
			c-0.414-0.045-0.835-0.066-1.251-0.066h-0.534c-0.29,0-0.58,0.011-0.867,0.032c-6.817,0.498-13.393,1.59-18.361,2.485
			c-1.4,0.253-2.8,0.511-4.257,0.78c-4.147,0.766-8.064,1.488-12.016,2.074c-4.695,0.697-9.826,1.043-15.685,1.06
			c-8.67,0.032-17.139-0.654-24.419-1.302l-1.417-0.126c-7.711-0.685-15.686-1.392-23.412-2.33c-1.376-0.167-2.753-0.33-4.136-0.493
			c-4.272-0.506-8.688-1.028-12.937-1.653c-5.179-0.76-8.634-0.705-11.511,0.191c-0.224,0.049-0.445,0.099-0.667,0.152l-0.431,0.108
			c-0.25,0.063-0.5,0.128-0.791,0.208l-0.479,0.137c-0.251,0.073-0.503,0.15-0.717,0.219l-0.481,0.155
			c-0.287,0.096-0.577,0.198-0.888,0.31l-0.38,0.138c-0.399,0.151-0.804,0.31-1.222,0.485l-0.345,0.148
			c-0.309,0.134-0.621,0.271-0.933,0.416l-0.468,0.223c-0.279,0.135-0.559,0.274-0.833,0.416l-0.499,0.261
			c-0.285,0.152-0.57,0.311-0.929,0.515l-0.354,0.203c-0.436,0.256-0.871,0.523-1.265,0.778l-0.269,0.179
			c-0.351,0.23-0.702,0.471-1.1,0.754l-0.371,0.271c-0.292,0.215-0.582,0.435-0.934,0.711l-0.426,0.341
			c-0.283,0.231-0.564,0.467-0.922,0.778l-0.357,0.313c-0.34,0.306-0.676,0.625-0.972,0.909c-0.091,0.088-0.208,0.199-0.279,0.269
			c-0.403,0.401-0.8,0.817-1.188,1.244c-0.12,0.131-0.238,0.267-0.381,0.431c-0.268,0.307-0.535,0.617-0.782,0.918
			c-0.136,0.167-0.272,0.334-0.443,0.552c-0.24,0.305-0.477,0.619-0.745,0.984c-0.132,0.18-0.262,0.359-0.359,0.5
			c-0.273,0.388-0.535,0.788-0.745,1.11c-0.108,0.166-0.217,0.33-0.297,0.458c-0.333,0.535-0.656,1.086-0.974,1.667
			c-0.083,0.152-0.164,0.308-0.245,0.463c-0.217,0.417-0.434,0.838-0.644,1.275c-0.09,0.188-0.178,0.379-0.301,0.65
			c-0.179,0.393-0.352,0.792-0.521,1.201c-0.094,0.229-0.188,0.459-0.279,0.694c-0.171,0.442-0.332,0.896-0.514,1.415
			c-0.065,0.188-0.13,0.374-0.18,0.525c-0.209,0.648-0.409,1.31-0.613,2.072L9.392,37.71c-0.137,0.538-0.266,1.086-0.384,1.647
			c-0.041,0.197-0.081,0.398-0.119,0.601L8.866,40.08c-0.091,0.472-0.176,0.95-0.256,1.468c-0.04,0.257-0.079,0.515-0.114,0.776
			c-0.069,0.5-0.128,1.013-0.178,1.501l-0.012,0.119c-0.022,0.205-0.043,0.409-0.064,0.637c-0.064,0.746-0.115,1.506-0.144,2.287
			c-0.036,0.92-0.049,1.808-0.05,2.711l0.006,0.766c0.007,0.623,0.021,1.23,0.045,1.854l0.034,0.796
			c0.035,0.683,0.085,1.347,0.135,1.987c0.013,0.165,0.025,0.331,0.038,0.465c0.079,0.812,0.169,1.593,0.274,2.339
			c0.026,0.187,0.055,0.368,0.094,0.614c0.091,0.579,0.183,1.146,0.293,1.727l0.136,0.691c0.117,0.559,0.24,1.101,0.389,1.706
			l0.117,0.47c0.189,0.72,0.392,1.414,0.588,2.029c0.052,0.162,0.107,0.319,0.151,0.445c0.19,0.549,0.378,1.087,0.598,1.653
			l0.213,0.53c0.199,0.485,0.407,0.955,0.646,1.474c0.068,0.148,0.136,0.294,0.213,0.454c0.602,1.235,1.286,2.427,2.051,3.573
			l0.245,0.354c0.297,0.427,0.599,0.838,0.939,1.272l0.278,0.351c0.336,0.414,0.677,0.811,1.03,1.196l0.238,0.26
			c0.439,0.467,0.898,0.92,1.419,1.391c0.114,0.103,0.228,0.201,0.253,0.223c0.395,0.347,0.794,0.674,1.146,0.948
			c0.146,0.113,0.292,0.226,0.411,0.313c0.355,0.266,0.716,0.514,1.048,0.737c0.148,0.1,0.301,0.202,0.428,0.283
			c0.112,0.071,0.227,0.139,0.294,0.179c3.514,2.078,7.412,3.282,11.272,3.324c1.385,0.069,4.908,0.088,17.519,0.114
			c-2.782,33.431-15.898,74.699-26.493,108.035C18.63,209.335,13.909,224.192,11.385,235.47z"/>
		<path style="fill:#606060;" d="M9.959,234.043L9.959,234.043c-4.882,21.82-7.187,56.368,0.984,87.891
			c1.604,6.186,3.983,11.777,7.055,16.588c0.071,0.115,0.144,0.229,0.24,0.373c0.06,0.09,0.114,0.169,0.115,0.169
			c0,0,0,0-0.002-0.002c0.393,0.599,0.793,1.182,1.184,1.726c0.15,0.21,0.302,0.414,0.452,0.611l0.086,0.115
			c0.318,0.427,0.64,0.845,0.967,1.253c0.197,0.245,0.394,0.486,0.599,0.731c0.328,0.392,0.658,0.773,0.987,1.143l0.1,0.112
			c0.163,0.184,0.326,0.366,0.478,0.53c0.412,0.445,0.827,0.874,1.22,1.265c0.121,0.125,0.243,0.25,0.377,0.382
			c0.528,0.516,1.06,1.007,1.602,1.487c0.172,0.152,0.344,0.297,0.521,0.448l0.057,0.047c0.358,0.306,0.716,0.607,1.08,0.9
			c0.227,0.183,0.455,0.359,0.663,0.52c0.342,0.264,0.684,0.52,1.083,0.811c0.201,0.146,0.403,0.291,0.616,0.44
			c0.374,0.261,0.748,0.511,1.12,0.755l1.303-1.985l-1.224,2.038c0.161,0.107,0.321,0.214,0.465,0.304
			c0.538,0.341,1.075,0.665,1.604,0.972c0.16,0.092,0.32,0.181,0.527,0.294c0.379,0.211,0.757,0.419,1.139,0.617
			c0.222,0.116,0.44,0.225,0.63,0.32c0.329,0.165,0.656,0.324,1.001,0.487c0.219,0.103,0.437,0.204,0.642,0.297
			c0.337,0.152,0.67,0.296,0.985,0.429l0.587,0.247c0.465,0.189,0.923,0.367,1.438,0.557l0.317,0.114
			c0.396,0.143,0.787,0.277,1.21,0.417l0.511,0.16c0.294,0.093,0.585,0.182,0.922,0.281l0.518,0.147
			c0.282,0.078,0.557,0.152,0.867,0.231l0.482,0.123c0.323,0.078,0.636,0.15,0.912,0.212l0.317,0.071
			c0.397,0.085,0.777,0.16,1.174,0.234l0.34,0.06c0.252,0.045,0.498,0.087,0.778,0.131l1.356,0.192
			c0.224,0.027,0.433,0.052,0.596,0.068l0.273,0.029c0.27,0.027,0.521,0.05,0.77,0.069l1.374,0.077c0.003,0,0.122,0.002,0.125,0.002
			l0.185,0.004c0.016,0,0.097,0.002,0.112,0.002h0.176c3.255,0.208,7.593,0.313,12.896,0.313c0.012,0,0.024,0,0.036,0
			c26.454,0,71.87-2.528,96.304-3.889c6.62-0.368,12.873-0.717,13.826-0.728c10.027-0.084,16.874-6.072,19.69-11.175
			c0.178-0.322,0.342-0.654,0.489-0.991c0.337-0.772,0.645-1.547,1.004-2.519l0.116-0.318c6.244-17.432-1.656-30.258-11.129-36.448
			c-4.569-2.992-9.051-3.645-10.316-3.773c-0.449-0.046-0.885-0.066-1.322-0.06l-10.694,0.108c-0.429,0.005-0.862,0.033-1.289,0.084
			c-1.48,0.177-2.959,0.36-4.46,0.548c-1.513,0.188-3.026,0.375-4.54,0.556c-8.234-40.041,13.087-102.733,28.731-148.727
			c9.273-27.263,13.997-54.321,13.662-78.248c-0.296-21.134-4.53-39.142-11.921-50.707c-6.679-10.45-14.374-13.311-19.653-13.87
			c-0.414-0.045-0.835-0.067-1.252-0.067h-0.534c-0.29,0-0.58,0.011-0.867,0.032c-6.817,0.499-13.393,1.59-18.36,2.485
			c-1.4,0.254-2.8,0.512-4.257,0.781c-4.147,0.765-8.064,1.488-12.016,2.074c-4.696,0.697-9.826,1.043-15.686,1.059
			c-8.67,0.033-17.139-0.653-24.419-1.301l-1.417-0.126c-7.712-0.685-15.686-1.393-23.412-2.33c-1.376-0.167-2.753-0.33-4.136-0.493
			c-4.271-0.505-8.688-1.028-12.937-1.653c-5.179-0.76-8.633-0.705-11.512,0.191c-0.223,0.048-0.445,0.099-0.667,0.152l-0.431,0.107
			c-0.25,0.063-0.5,0.129-0.791,0.209l-0.479,0.138c-0.251,0.073-0.503,0.15-0.717,0.219l-0.482,0.155
			c-0.286,0.096-0.576,0.197-0.887,0.31l-0.379,0.138c-0.4,0.15-0.804,0.311-1.222,0.484l-0.346,0.149
			c-0.31,0.133-0.621,0.271-0.933,0.416l-0.468,0.223c-0.279,0.135-0.558,0.273-0.833,0.416l-0.499,0.261
			c-0.285,0.152-0.571,0.311-0.928,0.515l-0.354,0.203c-0.436,0.256-0.871,0.523-1.265,0.779l-0.269,0.178
			c-0.35,0.231-0.701,0.472-1.099,0.755l-0.371,0.271c-0.293,0.215-0.583,0.435-0.935,0.71L19.8,17.477
			c-0.283,0.231-0.565,0.467-0.922,0.778l-0.357,0.313c-0.341,0.307-0.679,0.623-0.972,0.91c-0.092,0.086-0.208,0.198-0.28,0.269
			c-0.403,0.401-0.8,0.817-1.188,1.243c-0.119,0.131-0.238,0.267-0.38,0.432c-0.27,0.306-0.535,0.616-0.782,0.918
			c-0.137,0.166-0.271,0.335-0.443,0.551c-0.24,0.307-0.477,0.619-0.745,0.985c-0.131,0.18-0.261,0.358-0.359,0.5
			c-0.273,0.387-0.538,0.786-0.744,1.109c-0.11,0.165-0.217,0.33-0.298,0.459c-0.333,0.534-0.655,1.086-0.974,1.666
			c-0.083,0.152-0.165,0.308-0.245,0.463c-0.22,0.416-0.435,0.837-0.644,1.274c-0.09,0.189-0.177,0.38-0.301,0.651
			c-0.179,0.393-0.352,0.792-0.52,1.201c-0.094,0.229-0.188,0.459-0.279,0.694c-0.171,0.442-0.335,0.895-0.514,1.416
			c-0.067,0.187-0.131,0.374-0.18,0.525c-0.212,0.647-0.41,1.31-0.614,2.071l-0.092,0.376c-0.137,0.539-0.267,1.087-0.385,1.648
			c-0.04,0.197-0.08,0.396-0.119,0.6l-0.023,0.123c-0.091,0.472-0.175,0.95-0.256,1.467c-0.04,0.257-0.078,0.515-0.114,0.776
			c-0.069,0.501-0.128,1.013-0.178,1.501l-0.013,0.119c-0.023,0.205-0.043,0.409-0.063,0.636c-0.064,0.747-0.115,1.507-0.145,2.287
			c-0.035,0.921-0.048,1.808-0.049,2.711l0.006,0.767c0.007,0.623,0.022,1.23,0.045,1.854l0.034,0.796
			c0.036,0.683,0.082,1.346,0.136,1.987c0.012,0.165,0.024,0.33,0.038,0.464c0.076,0.812,0.169,1.593,0.273,2.34
			c0.026,0.187,0.054,0.367,0.094,0.613c0.088,0.58,0.184,1.146,0.294,1.728l0.136,0.691c0.117,0.56,0.239,1.101,0.389,1.706
			l0.117,0.47c0.189,0.72,0.391,1.414,0.589,2.029c0.052,0.162,0.105,0.319,0.15,0.445c0.184,0.552,0.378,1.087,0.598,1.652
			l0.213,0.531c0.2,0.485,0.406,0.955,0.646,1.474c0.067,0.147,0.136,0.295,0.213,0.454c0.602,1.235,1.286,2.427,2.051,3.572
			l0.245,0.354c0.296,0.428,0.599,0.838,0.939,1.273l0.278,0.351c0.335,0.413,0.677,0.811,1.029,1.195l0.237,0.26
			c0.44,0.467,0.9,0.919,1.42,1.391c0.114,0.103,0.228,0.202,0.254,0.224c0.394,0.346,0.792,0.675,1.146,0.947
			c0.146,0.114,0.292,0.226,0.41,0.313c0.356,0.265,0.715,0.517,1.049,0.737c0.146,0.101,0.301,0.203,0.428,0.283
			c0.112,0.072,0.226,0.141,0.294,0.18c3.482,2.131,7.412,3.281,11.272,3.323c1.386,0.069,4.908,0.089,17.52,0.115
			c-2.782,33.431-15.897,74.699-26.493,108.034C17.204,207.909,12.483,222.766,9.959,234.043z"/>
	</g>
	<path style="fill:#FFFFFF;" d="M9.959,234.043L9.959,234.043c-4.882,21.82-7.187,56.368,0.984,87.891
		c1.604,6.186,3.983,11.777,7.055,16.588c0.071,0.115,0.144,0.229,0.24,0.373c0.06,0.09,0.114,0.169,0.115,0.169
		c0,0,0,0-0.002-0.002c0.393,0.599,0.793,1.182,1.184,1.726c0.15,0.21,0.302,0.414,0.452,0.611l0.086,0.115
		c0.318,0.427,0.64,0.845,0.967,1.253c0.197,0.245,0.394,0.486,0.599,0.731c0.328,0.392,0.658,0.773,0.987,1.143l0.1,0.112
		c0.163,0.184,0.326,0.366,0.478,0.53c0.412,0.445,0.827,0.874,1.22,1.265c0.121,0.125,0.243,0.25,0.377,0.382
		c0.528,0.516,1.06,1.007,1.602,1.487c0.172,0.152,0.344,0.297,0.521,0.448l0.057,0.047c0.358,0.306,0.716,0.607,1.08,0.9
		c0.227,0.183,0.455,0.359,0.663,0.52c0.342,0.264,0.684,0.52,1.083,0.811c0.201,0.146,0.403,0.291,0.616,0.44
		c0.374,0.261,0.748,0.511,1.12,0.755l1.303-1.985l-1.224,2.038c0.161,0.107,0.321,0.214,0.465,0.304
		c0.538,0.341,1.075,0.665,1.604,0.972c0.16,0.092,0.32,0.181,0.527,0.294c0.379,0.211,0.757,0.419,1.139,0.617
		c0.222,0.116,0.44,0.225,0.63,0.32c0.329,0.165,0.656,0.324,1.001,0.487c0.219,0.103,0.437,0.204,0.642,0.297
		c0.337,0.152,0.67,0.296,0.985,0.429l0.587,0.247c0.465,0.189,0.923,0.367,1.438,0.557l0.317,0.114
		c0.396,0.143,0.787,0.277,1.21,0.417l0.511,0.16c0.294,0.093,0.585,0.182,0.922,0.281l0.518,0.147
		c0.282,0.078,0.557,0.152,0.867,0.231l0.482,0.123c0.323,0.078,0.636,0.15,0.912,0.212l0.317,0.071
		c0.397,0.085,0.777,0.16,1.174,0.234l0.34,0.06c0.252,0.045,0.498,0.087,0.778,0.131l1.356,0.192
		c0.224,0.027,0.433,0.052,0.596,0.068l0.273,0.029c0.27,0.027,0.521,0.05,0.77,0.069l1.374,0.077c0.003,0,0.122,0.002,0.125,0.002
		l0.185,0.004c0.016,0,0.097,0.002,0.112,0.002h0.176c3.255,0.208,7.593,0.313,12.896,0.313c0.012,0,0.024,0,0.036,0
		c26.454,0,71.87-2.528,96.304-3.889c6.62-0.368,12.873-0.717,13.826-0.728c10.027-0.084,16.874-6.072,19.69-11.175
		c0.178-0.322,0.342-0.654,0.489-0.991c0.337-0.772,0.645-1.547,1.004-2.519l0.116-0.318c6.244-17.432-1.656-30.258-11.129-36.448
		c-4.569-2.992-9.051-3.645-10.316-3.773c-0.449-0.046-0.885-0.066-1.322-0.06l-10.694,0.108c-0.429,0.005-0.862,0.033-1.289,0.084
		c-1.48,0.177-2.959,0.36-4.46,0.548c-1.513,0.188-3.026,0.375-4.54,0.556c-8.234-40.041,13.087-102.733,28.731-148.727
		c9.273-27.263,13.997-54.321,13.662-78.248c-0.296-21.134-4.53-39.142-11.921-50.707c-6.679-10.45-14.374-13.311-19.653-13.87
		c-0.414-0.045-0.835-0.067-1.252-0.067h-0.534c-0.29,0-0.58,0.011-0.867,0.032c-6.817,0.499-13.393,1.59-18.36,2.485
		c-1.4,0.254-2.8,0.512-4.257,0.781c-4.147,0.765-8.064,1.488-12.016,2.074c-4.696,0.697-9.826,1.043-15.686,1.059
		c-8.67,0.033-17.139-0.653-24.419-1.301l-1.417-0.126c-7.712-0.685-15.686-1.393-23.412-2.33c-1.376-0.167-2.753-0.33-4.136-0.493
		c-4.271-0.505-8.688-1.028-12.937-1.653c-5.179-0.76-8.633-0.705-11.512,0.191c-0.223,0.048-0.445,0.099-0.667,0.152l-0.431,0.107
		c-0.25,0.063-0.5,0.129-0.791,0.209l-0.479,0.138c-0.251,0.073-0.503,0.15-0.717,0.219l-0.482,0.155
		c-0.286,0.096-0.576,0.197-0.887,0.31l-0.379,0.138c-0.4,0.15-0.804,0.311-1.222,0.484l-0.346,0.149
		c-0.31,0.133-0.621,0.271-0.933,0.416l-0.468,0.223c-0.279,0.135-0.558,0.273-0.833,0.416l-0.499,0.261
		c-0.285,0.152-0.571,0.311-0.928,0.515l-0.354,0.203c-0.436,0.256-0.871,0.523-1.265,0.779l-0.269,0.178
		c-0.35,0.231-0.701,0.472-1.099,0.755l-0.371,0.271c-0.293,0.215-0.583,0.435-0.935,0.71L19.8,17.477
		c-0.283,0.231-0.565,0.467-0.922,0.778l-0.357,0.313c-0.341,0.307-0.679,0.623-0.972,0.91c-0.092,0.086-0.208,0.198-0.28,0.269
		c-0.403,0.401-0.8,0.817-1.188,1.243c-0.119,0.131-0.238,0.267-0.38,0.432c-0.27,0.306-0.535,0.616-0.782,0.918
		c-0.137,0.166-0.271,0.335-0.443,0.551c-0.24,0.307-0.477,0.619-0.745,0.985c-0.131,0.18-0.261,0.358-0.359,0.5
		c-0.273,0.387-0.538,0.786-0.744,1.109c-0.11,0.165-0.217,0.33-0.298,0.459c-0.333,0.534-0.655,1.086-0.974,1.666
		c-0.083,0.152-0.165,0.308-0.245,0.463c-0.22,0.416-0.435,0.837-0.644,1.274c-0.09,0.189-0.177,0.38-0.301,0.651
		c-0.179,0.393-0.352,0.792-0.52,1.201c-0.094,0.229-0.188,0.459-0.279,0.694c-0.171,0.442-0.335,0.895-0.514,1.416
		c-0.067,0.187-0.131,0.374-0.18,0.525c-0.212,0.647-0.41,1.31-0.614,2.071l-0.092,0.376c-0.137,0.539-0.267,1.087-0.385,1.648
		c-0.04,0.197-0.08,0.396-0.119,0.6l-0.023,0.123c-0.091,0.472-0.175,0.95-0.256,1.467c-0.04,0.257-0.078,0.515-0.114,0.776
		c-0.069,0.501-0.128,1.013-0.178,1.501l-0.013,0.119c-0.023,0.205-0.043,0.409-0.063,0.636c-0.064,0.747-0.115,1.507-0.145,2.287
		c-0.035,0.921-0.048,1.808-0.049,2.711l0.006,0.767c0.007,0.623,0.022,1.23,0.045,1.854l0.034,0.796
		c0.036,0.683,0.082,1.346,0.136,1.987c0.012,0.165,0.024,0.33,0.038,0.464c0.076,0.812,0.169,1.593,0.273,2.34
		c0.026,0.187,0.054,0.367,0.094,0.613c0.088,0.58,0.184,1.146,0.294,1.728l0.136,0.691c0.117,0.56,0.239,1.101,0.389,1.706
		l0.117,0.47c0.189,0.72,0.391,1.414,0.589,2.029c0.052,0.162,0.105,0.319,0.15,0.445c0.184,0.552,0.378,1.087,0.598,1.652
		l0.213,0.531c0.2,0.485,0.406,0.955,0.646,1.474c0.067,0.147,0.136,0.295,0.213,0.454c0.602,1.235,1.286,2.427,2.051,3.572
		l0.245,0.354c0.296,0.428,0.599,0.838,0.939,1.273l0.278,0.351c0.335,0.413,0.677,0.811,1.029,1.195l0.237,0.26
		c0.44,0.467,0.9,0.919,1.42,1.391c0.114,0.103,0.228,0.202,0.254,0.224c0.394,0.346,0.792,0.675,1.146,0.947
		c0.146,0.114,0.292,0.226,0.41,0.313c0.356,0.265,0.715,0.517,1.049,0.737c0.146,0.101,0.301,0.203,0.428,0.283
		c0.112,0.072,0.226,0.141,0.294,0.18c3.482,2.131,7.412,3.281,11.272,3.323c1.386,0.069,4.908,0.089,17.52,0.115
		c-2.782,33.431-15.897,74.699-26.493,108.034C17.204,207.909,12.483,222.766,9.959,234.043z"/>
	<g>
		<path style="fill:#DE9E6C;" d="M51.474,24.42c0,0-5.357-2.187-10.306-2.795c-4.724-0.583-21.859,3.784-22.631,24.267
			c-0.791,20.948,9.046,25.535,14.73,24.705c9.961-1.457,70.51,0.292,70.51,0.292L51.474,24.42z"/>
		<path style="opacity:0.6;fill:#EDC49C;" d="M22.974,64.477c-2.093-3.796-3.347-8.056-3.684-12.378
			c-0.654-8.405,1.557-18.219,8.166-23.964c2.902-2.522,6.308-4.713,9.89-6.233c-6.804,1.371-18.183,7.384-18.809,23.989
			c-0.515,13.623,3.467,20.325,7.876,23.119C25.005,67.724,23.856,66.075,22.974,64.477z"/>
		<path style="opacity:0.6;fill:#EDC49C;" d="M51.474,24.42c0,0-0.875-0.357-2.243-0.822c-1.425,0.187-2.841,0.447-4.237,0.806
			c-2.797,0.717-5.48,1.773-7.82,3.492c-2.311,1.699-5.222,3.948-6.91,6.269c-0.882,1.213-3.536,6.545-2.736,6.646
			c0.886,0.111,5.472,0.854,6.306,1.179c0.208,0.081,0.175,0.364-0.051,0.384c-0.454,0.041-0.906,0.088-1.358,0.146
			c-1.497,0.192-3.003,0.454-4.516,0.475c-0.34,0.005-0.683,0.011-1.021-0.012c-0.299-0.02-0.266,0.478-0.294,0.651
			c-0.1,0.609-0.189,1.219-0.254,1.832c-0.227,2.133-0.272,4.292-0.046,6.427c0.426,4.008,1.704,7.945,3.979,11.291
			c2.059,3.025,4.73,5.36,7.768,7.051c17.401-0.74,65.736,0.655,65.736,0.655L51.474,24.42z M44.143,67.197
			c0,0.252-0.392,0.252-0.392,0v-0.391c0-0.252,0.392-0.252,0.392,0V67.197z"/>
		<path style="opacity:0.6;fill:#EDC49C;" d="M58.128,30.333c-2.739,1.876-4.783,4.996-6.162,7.988
			c-1.55,3.362-2.646,7.012-3.108,10.689c-0.458,3.653,0.201,7.405,1.329,10.887c1.11,3.429,2.858,7.091,5.256,10.126
			c20.964,0.075,48.334,0.865,48.334,0.865L58.128,30.333z"/>
		<path style="fill:#F6E1CC;" d="M38.505,52.021c3.266,3.625,4.102,8.525,2.626,12.37c-1.187,3.085-3.57,5.623-8.622,6.344
			c0.337,0.06,71.268,0.154,71.268,0.154L82.541,52.021H38.505z"/>
		<path style="opacity:0.6;fill:#EDC49C;" d="M47.274,62.917c2.083,0.209,4.153,0.544,6.251,0.566
			c0.231,0.003,0.25,0.308,0.051,0.384c-1.891,0.724-4.031,0.44-5.933,1.162c-0.39,0.149-0.512,0.435-0.724,0.767
			c-0.356,0.561-0.789,1.063-1.235,1.553c-1.113,1.219-2.379,2.409-3.766,3.43c19.36,0.053,61.859,0.11,61.859,0.11L82.541,52.021
			H44.809C46.849,55.122,47.39,59.271,47.274,62.917z"/>
		<path style="fill:#C17759;" d="M57.955,52.672c0.858,3.176,1.137,6.512,1.241,9.791c0.088,2.783,0.039,5.572-0.132,8.354
			c20.259,0.039,44.714,0.072,44.714,0.072L82.541,52.021H57.77C57.835,52.241,57.898,52.46,57.955,52.672z"/>
		<path style="fill:#F6E1CC;" d="M164.132,21.504h-0.534c-5.73,0.419-11.44,1.305-17.117,2.329
			c-5.541,1.001-11.07,2.088-16.642,2.915c-5.746,0.852-11.585,1.172-17.39,1.188c-8.521,0.025-17.024-0.593-25.507-1.348
			c-8.409-0.747-16.822-1.478-25.204-2.495c-5.801-0.701-11.595-1.336-17.375-2.186c-6.15-0.904-6.671,0.007-6.671,0.007
			c2.932,0.326,7.556,2.073,10.561,5.173c37.972,39.18-16.164,162.439-26.705,209.548c-4.797,21.444-6.592,53.45,0.891,82.318
			c7.483,28.862,31.518,28.714,31.518,28.714l115.119-5.195c-52.383-29.935-19.905-126.495,2.979-193.776
			C197.229,74.68,181.157,23.309,164.132,21.504z"/>
		<path style="opacity:0.6;fill:#EDC49C;" d="M164.132,21.504h-0.534c-5.73,0.419-11.44,1.305-17.117,2.329
			c-5.541,1.001-11.07,2.088-16.642,2.915c-5.746,0.852-11.585,1.172-17.39,1.188c-8.521,0.025-17.024-0.593-25.507-1.348
			c-8.409-0.747-16.822-1.478-25.204-2.495c-5.801-0.701-11.595-1.336-17.375-2.186c-6.15-0.904-6.671,0.007-6.671,0.007
			c2.932,0.326,7.556,2.073,10.561,5.173c37.972,39.18-16.164,162.439-26.705,209.548c-4.797,21.444-6.592,53.45,0.891,82.318
			c7.483,28.862,31.518,28.714,31.518,28.714l115.119-5.195c-52.383-29.935-19.905-126.495,2.979-193.776
			C197.229,74.68,181.157,23.309,164.132,21.504z M161.436,170.804c-3.296,8.311-6.361,18.381-9.464,26.766
			c-2.061,5.568-4.311,13.591-5.994,19.286c-5.724,19.372-10.283,40.399-9.904,63.852c0.097,5.916,5.734,27.625-1.964,29.44
			c-1.776,0.418-3.631,0.214-5.439,0.413c-3.036,0.335-40.438-0.085-46.805-0.599c-6.35-0.512-25.648,0.31-28.737,0.071
			c-5.143-0.396-6.439,10.45-6.446,14.394c0,0.183-0.28,0.282-0.364,0.098c-2.328-5.071-5.363-9.902-5.569-15.648
			c-0.024-0.65-0.01-1.293,0.028-1.932c-0.486,2.194-0.739,4.458-0.743,6.758c-0.011,7.395,1.987,14.612,4.862,21.376
			c0.076,0.177-0.081,0.36-0.268,0.267c-7.835-3.912-12.977-11.294-16.017-19.321c-4.297-11.35-5.296-23.87-4.985-35.914
			c0.345-13.303,2.759-26.336,5.665-39.295c8.248-36.793,21.344-72.247,30.698-108.744c4.744-18.507,8.865-37.448,9.969-56.567
			c0.487-8.446,0.276-16.828-0.688-25.23c-0.244-2.12-4.205-15.85-6.86-20.181c-0.064-0.104,62.326,15.408,90.303,5.317
			c-4.179,0.015-8.362,0.014-12.523-0.409c-4.782-0.487-9.753-1.413-13.858-4.057c-0.174-0.112,21.888-0.696,33.132-5.576
			c0.226-0.373,8.796,2.541,14.462,10.127c3.257,4.362,4.848,9.729,5.879,15.072c5.589,28.983-0.248,60.791-8.289,88.886
			C168.313,150.657,165.725,159.992,161.436,170.804z"/>
		<path style="fill:#C17759;" d="M144.769,310.893c-6.998,1.435-14.201,1.969-21.315,2.097c-11.602,0.208-23.181-0.717-34.778-0.79
			c-8.72-0.055-22.465,1.12-31.177,0.693c0.731,0.739,2.759,2.819,3.389,3.649c2.649,3.489,8.026,5.342,8.211,9.747
			c0.183,4.376-0.749,9.154-3.786,12.476c-3.307,3.618-8.61,5.682-13.467,5.725c-0.279,0.002-0.557,0.002-0.836-0.001
			c-7.449,0.473-14.634-3.123-19.795-8.524c-1.112-1.165-2.151-2.401-3.121-3.692c9.963,15.492,25.861,15.396,25.861,15.396
			l115.119-5.195C156.553,335.317,148.884,324.352,144.769,310.893z"/>
		<path style="fill:#E8B78D;" d="M62.638,313.85c0,0-2.442-0.94-4.742-0.598c-2.299,0.341-6.851,4.635-5.821,10.044
			c0,0,1.009,6.012,6.163,5.562l16.854-1.782C75.092,327.076,68.908,314.624,62.638,313.85z"/>
		<path style="fill:#DE9E6C;" d="M62.638,313.85c0,0-2.442-0.94-4.742-0.598c-2.299,0.341-6.851,4.635-5.821,10.044
			c0,0,1.009,6.012,6.163,5.562l16.854-1.782C75.092,327.076,68.908,314.624,62.638,313.85z"/>
		<path style="opacity:0.5;fill:#DE9E6C;" d="M60.432,313.295c-0.494,0.282-0.965,0.6-1.392,0.978
			c-1.368,1.209-2.209,2.775-2.837,4.461c1.095,0.202,2.211,0.266,3.304,0.486c0.198,0.04,0.176,0.323,0,0.377
			c-0.942,0.285-1.938,0.353-2.881,0.636c-1.544,0.466-0.98,2.025-0.373,3.099c1.171,2.072,2.886,3.848,5.137,4.732
			c0.346,0.136,0.695,0.248,1.047,0.35l12.655-1.338c0,0-6.184-12.453-12.454-13.226C62.638,313.85,61.696,313.487,60.432,313.295z"
			/>
		<path style="fill:#F6E1CC;" d="M59.489,322.181c0.854,1.175,1.067,2.712,0.62,4.124c-0.273,0.862-0.749,1.873-1.484,2.513
			l16.467-1.741c0,0-1.119-2.25-2.883-4.896H59.489z"/>
		<path style="fill:#DE9E6C;" d="M63.621,322.586c0.976,0.089,2.247,0.037,3.167,0.416c0.705,0.292,1.094,1.094,1.195,1.828
			c0.141,1.038,0.044,2.026-0.155,3.014l7.264-0.768c0,0-1.119-2.25-2.883-4.896H60.55
			C61.556,322.404,62.602,322.492,63.621,322.586z"/>
		<path style="fill:#F6E1CC;" d="M180.684,313.721c-2.503-1.638-5.015-1.894-5.015-1.894l-10.693,0.108
			c-3.312,0.396-6.618,0.826-9.929,1.213c-8.301,0.97-16.667,1.461-25.006,2.001c-8.388,0.545-16.729,0.729-25.127,0.376
			c-8.362-0.351-16.735-0.763-25.081-1.368c-4.102-0.297-8.192-0.707-12.291-1.022c-2.808-0.216-5.65,0.014-8.465-0.074l-1.182,0.19
			c11.678,0.34,15.323,17.639,10.868,26.371c-4.454,8.728-18.172,7.66-18.172,7.66c18.172,2.852,120.755-3.874,126.327-3.919
			c6.644-0.056,9.393-5.037,9.393-5.037C192.2,324.805,185.8,317.065,180.684,313.721z"/>
		<path style="opacity:0.6;fill:#EDC49C;" d="M180.684,313.721c-2.503-1.638-5.015-1.894-5.015-1.894l-10.693,0.108
			c-3.312,0.396-6.618,0.826-9.929,1.213c-8.301,0.97-16.667,1.461-25.006,2.001c-8.388,0.545-16.729,0.729-25.127,0.376
			c-8.362-0.351-16.735-0.763-25.081-1.368c-4.102-0.297-8.192-0.707-12.291-1.022c-2.808-0.216-5.65,0.014-8.465-0.074l-1.182,0.19
			c11.678,0.34,15.323,17.639,10.868,26.371c-4.454,8.728-18.172,7.66-18.172,7.66c18.172,2.852,120.755-3.874,126.327-3.919
			c6.644-0.056,9.393-5.037,9.393-5.037C192.2,324.805,185.8,317.065,180.684,313.721z M183.543,327.604
			c-0.514,3.31-2.757,5.855-5.673,7.373c-4.226,2.2-9.123,2.576-13.789,2.969c-6.232,0.526-12.487,0.65-18.739,0.72
			c-6.245,0.07-12.495,0.086-18.73,0.437c-6.322,0.357-12.614,1.078-18.941,1.396c-6.305,0.317-12.629,0.547-18.942,0.611
			c-5.422,0.056-11.077,0.459-16.296-1.315c-0.141-0.048-0.189-0.214-0.086-0.326c2.614-2.858,5.083-5.835,7.244-9.049
			c-1.763,1.247-3.359,2.717-5.183,3.883c-0.159,0.102-0.311-0.064-0.287-0.221c0.77-4.886-0.264-9.99-2.326-14.444
			c-0.052-0.11-0.015-0.254,0.116-0.287c9.691-2.456,19.79-2.417,29.68-1.425c11.681,1.172,23.205,3.519,34.857,4.929
			c10.562,1.277,21.702,2.38,32.185-0.064c-10.378-0.576-20.742-1.884-30.786-4.627c-0.173-0.048-0.199-0.348,0-0.376
			c7.735-1.142,15.539-1.689,23.316-2.457c2.541-0.697,5.069-1.455,7.669-1.881c4.077-0.67,8.564-0.441,11.353,3.038
			C182.525,319.405,184.128,323.836,183.543,327.604z"/>
		<path style="fill:#DE9E6C;" d="M175.686,340.903c-3.461,0.549-6.968,0.715-10.467,0.819c-5.463,0.165-10.915,0.389-16.37,0.757
			c-12.889,0.869-25.761,2.186-38.685,2.428c-6.369,0.119-12.746,0.023-19.114-0.101c-5.681-0.11-11.367-0.433-17.045-0.408
			c-1.385,0.007-3.512,0.105-4.599-0.951c-1.1-1.068-0.261-2.866,0.225-4.042c0.688-1.658,1.391-3.112,1.585-4.916
			c0.184-1.7,0.198-3.423,0.033-5.127c-0.342-3.52-1.324-7.216-3.51-10.063c-0.245-0.32-0.505-0.616-0.774-0.898
			c4.145,5.883,4.753,15.433,1.799,21.22c-4.454,8.728-18.172,7.66-18.172,7.66c18.172,2.852,120.755-3.874,126.327-3.919
			c6.644-0.056,9.393-5.037,9.393-5.037c0.586-1.344,1.045-2.629,1.4-3.861C185.242,338.424,180.364,340.161,175.686,340.903z"/>
		<path style="opacity:0.8;fill:#FFFFFF;" d="M41.131,64.391c-0.961,2.5-2.708,4.639-6.024,5.746
			c2.542-0.466,4.91-1.685,6.279-4.008c1.334-2.262,1.711-4.893,1.383-7.477c-0.135-1.066-0.429-2.12-0.538-3.188
			c-0.059-0.592-0.02-1.289,0.478-1.706c1.229-1.032,3.079-0.989,4.596-1.033c2.167-0.064,4.307-0.44,6.461-0.654
			c0.192-0.019,0.387-0.034,0.582-0.05H38.505C41.771,55.646,42.606,60.546,41.131,64.391z"/>
	</g>
</g>
</svg>
